<svg width="185" height="80" viewBox="0 0 185 80" fill="none" xmlns="http://www.w3.org/2000/svg">
<rect x="0.5" y="0.5" width="184" height="79" rx="3.5" stroke="#C5C5C5" stroke-opacity="0.76"/>
<path fill-rule="evenodd" clip-rule="evenodd" d="M115.982 38.1643C115.69 38.3542 115.411 38.565 115.149 38.7952C111.558 42.3784 107.966 45.9701 104.374 49.5702C104.24 49.7119 104.077 49.8234 103.897 49.8974C103.716 49.9714 103.522 50.006 103.327 49.9992H81.2093C80.2757 49.9992 80.1116 49.8352 80.1116 48.9015V31.5782C79.942 31.6605 79.7777 31.7532 79.6196 31.8558L78.6733 32.5876C76.869 34.0133 76.869 34.0133 74.5854 33.925C74.2321 33.925 74.0428 33.8114 74.0807 33.4329C74.0807 31.1997 74.0807 31.1997 75.7966 29.8244L80.2126 26.3547C80.2126 26.3547 80.3387 26.2286 80.3892 26.2286C81.4995 26.2286 82.6098 26.1529 83.7201 26.2286C83.8463 26.2286 84.0482 26.7206 84.0608 26.9856C84.0608 28.7015 84.0608 30.4174 84.0608 32.1334V45.1921C84.0608 46.05 84.0608 46.0626 84.9061 46.0626C90.4829 46.0626 96.0555 46.0626 101.624 46.0626C101.994 46.0534 102.348 45.9099 102.621 45.6589C105.043 43.2743 107.44 40.8644 109.85 38.4671C110.191 38.1391 110.203 37.9372 109.85 37.5966C107.327 35.1993 104.967 32.7516 102.507 30.3543C102.239 30.1271 101.899 30.002 101.548 30.0011H91.4544C90.1927 30.0011 90.1927 30.0011 90.1927 28.7394C90.1927 28.1211 90.1927 27.4777 90.1927 26.9099C90.1927 26.3421 90.445 26.0771 91.038 26.0771H103.529C103.77 26.0842 104.001 26.1732 104.185 26.3295L115.692 37.8237C115.692 37.8237 115.78 37.8994 115.982 38.1643Z" fill="#DA2731"/>
<path fill-rule="evenodd" clip-rule="evenodd" d="M65.8543 31.6287C65.0468 32.2469 64.2141 32.8904 63.4192 33.5086C63.2479 33.6596 63.0478 33.7744 62.831 33.8459C62.6141 33.9175 62.385 33.9444 62.1575 33.925C61.4636 33.925 60.757 33.925 60 33.925C60 32.9913 60 32.1586 60 31.3259C60.0342 31.1426 60.1382 30.9797 60.2902 30.8716C62.2458 29.3197 64.2267 27.7804 66.195 26.2538C67.3031 25.9594 68.4637 25.9206 69.589 26.1402C69.8205 26.395 69.9623 26.7184 69.9927 27.0613C69.9927 29.2188 69.9927 31.3763 69.9927 33.5338V48.8762C69.9927 49.8478 69.8413 49.9992 68.8572 49.9992H67.0656C66.2076 49.9992 66.0184 49.8099 66.0184 48.9646V31.6918L65.8543 31.6287Z" fill="#DA2731"/>
</svg>
