<svg width="276" height="276" viewBox="0 0 276 276" fill="none" xmlns="http://www.w3.org/2000/svg">
<g clip-path="url(#clip0)">
<path d="M188.536 50.5389C140.249 22.606 78.4719 39.1135 50.539 87.4007C22.6062 135.688 39.1137 197.465 87.4009 225.398C135.729 253.246 197.474 236.73 225.437 188.468C253.314 140.185 236.796 78.4561 188.536 50.5389ZM95.8044 210.843C55.5364 187.594 41.7393 136.101 64.988 95.833C88.2367 55.565 139.729 41.7677 179.997 65.0164C220.228 88.2979 234.014 139.748 210.814 180.026C187.565 220.294 136.072 234.091 95.8044 210.843Z" fill="#0B5DFF"/>
<path d="M163.991 147.305C171.744 147.386 178.716 142.61 181.449 135.36C185.997 124.355 176.039 113.461 166.895 107.098L175.767 91.7303L166.289 86.2582L157.495 101.491L151.131 97.8166L159.925 82.5841L150.447 77.112L141.653 92.3445L122.561 81.3219L116.894 91.1385L124.002 95.2426C127.184 97.0798 128.194 98.9265 126.709 101.499L102.358 143.676C100.325 147.197 97.9394 147.264 96.0438 146.169L88.7999 141.987L83.0151 152.007L101.43 162.638L92.4397 178.209L101.985 183.721L110.975 168.149L117.339 171.823L108.349 187.395L117.624 192.75L126.614 177.178L128.645 178.351C148.143 189.608 160.153 183.815 167.658 170.816C171.927 163.062 170.419 153.4 163.991 147.305ZM145.111 108.242L151.881 112.151C156.62 114.887 165.494 121.094 161.038 128.811C158.455 134.036 152.257 136.343 146.887 134.091L134.362 126.86L145.111 108.242ZM127.462 163.045L127.502 162.977L117.008 156.919L128.734 136.608L140.92 143.644C143.764 145.286 153.913 152.409 149.535 159.992C145.157 167.574 137.618 168.908 127.462 163.045Z" fill="#0B5DFF"/>
</g>
<defs>
<clipPath id="clip0">
<rect width="202" height="202" fill="white" transform="translate(101) rotate(30)"/>
</clipPath>
</defs>
</svg>
