<svg width="185" height="80" viewBox="0 0 185 80" fill="none" xmlns="http://www.w3.org/2000/svg">
<rect x="0.5" y="0.5" width="184" height="79" rx="3.5" stroke="#C5C5C5" stroke-opacity="0.76"/>
<path d="M147.263 42.5087C146.854 40.333 145.337 38.5586 143.786 38.5498C142.235 38.5498 139.969 40.3263 138.649 42.5121C137.329 44.6985 138.822 46.4706 142.143 46.4706C145.485 46.4458 147.671 44.6884 147.263 42.5087Z" fill="#E31B23"/>
<path d="M131.429 36.717C129.446 36.717 128 37.8231 128 39.2234C128 40.6231 129.446 41.6961 131.429 41.6961C132.532 41.6961 133.574 41.347 134.262 40.74C134.187 40.6904 133.997 40.404 133.358 40.404C132.756 40.404 132.621 40.8294 131.429 40.8294C130.262 40.8294 129.294 40.1304 129.294 39.2234C129.294 38.3158 130.262 37.5848 131.429 37.5848C132.493 37.5848 132.749 38.0312 133.296 38.0312C133.843 38.0312 134.162 37.7223 134.237 37.6737C133.549 37.0662 132.532 36.717 131.429 36.717Z" fill="black"/>
<path d="M138.423 36.8622H135.636C135.164 36.8622 134.835 37.0619 134.835 37.3791V37.6693H136.077C136.077 37.6693 136.125 40.6331 136.071 40.9531L136.07 40.9542C136.053 41.1986 135.903 41.784 135.105 42.0482C134.449 42.2651 134.442 42.4725 134.409 42.7942C134.418 42.8173 134.432 42.8316 134.451 42.8322H134.454C134.457 42.8322 134.46 42.8322 134.462 42.8311C134.486 42.8266 135.113 42.718 135.204 42.691L135.202 42.6893C135.791 42.5602 136.692 42.2755 137.122 41.6858C137.122 41.6858 137.525 41.2484 137.517 40.3105V37.6694H137.575C138.047 37.6694 138.423 37.4697 138.423 37.1525V36.8617" fill="black"/>
<path d="M152.8 35.3031C149.892 34.4965 146.955 34.5809 146.205 35.537C145.473 36.5071 146.559 38.749 148.627 40.6237C150.695 42.4985 153.614 42.436 155.226 40.3853C156.819 38.341 155.699 36.1082 152.8 35.3031Z" fill="#F8971D"/>
<path d="M138.014 35.9579C140.595 37.202 143.485 37.578 144.509 36.7712C145.542 35.9579 145.186 33.5823 143.76 31.4285C142.335 29.2757 139.468 28.8779 137.252 30.623C135.064 32.3664 135.441 34.7175 138.014 35.9579Z" fill="#007DC3"/>
<path d="M39.816 52.288C37.368 52.288 35.288 51.44 33.576 49.744C31.864 48.032 31.008 45.944 31.008 43.48C31.008 41.016 31.864 38.936 33.576 37.24C35.288 35.528 37.368 34.672 39.816 34.672C41.464 34.672 42.96 35.064 44.304 35.848C45.648 36.616 46.712 37.664 47.496 38.992L45.072 40.384C43.84 38.384 42.088 37.384 39.816 37.384C38.136 37.384 36.72 37.976 35.568 39.16C34.416 40.344 33.84 41.784 33.84 43.48C33.84 45.176 34.416 46.616 35.568 47.8C36.72 48.984 38.136 49.576 39.816 49.576C42.088 49.576 43.84 48.576 45.072 46.576L47.496 47.968C46.712 49.296 45.648 50.352 44.304 51.136C42.96 51.904 41.464 52.288 39.816 52.288ZM54.7898 52.24C53.1578 52.24 51.7818 51.632 50.6618 50.416C49.5578 49.2 49.0058 47.728 49.0058 46C49.0058 44.272 49.5578 42.8 50.6618 41.584C51.7818 40.368 53.1578 39.76 54.7898 39.76C55.6058 39.76 56.3578 39.944 57.0458 40.312C57.7338 40.664 58.2618 41.096 58.6298 41.608V40H61.2698V52H58.6298V50.392C58.2618 50.904 57.7338 51.344 57.0458 51.712C56.3578 52.064 55.6058 52.24 54.7898 52.24ZM52.7018 48.736C53.3738 49.472 54.2298 49.84 55.2698 49.84C56.3098 49.84 57.1658 49.472 57.8378 48.736C58.5098 48 58.8458 47.088 58.8458 46C58.8458 44.912 58.5098 44 57.8378 43.264C57.1658 42.528 56.3098 42.16 55.2698 42.16C54.2298 42.16 53.3738 42.528 52.7018 43.264C52.0298 44 51.6938 44.912 51.6938 46C51.6938 47.088 52.0298 48 52.7018 48.736ZM64.8463 52V40H67.4863V42.136C67.7103 41.464 68.1183 40.92 68.7103 40.504C69.3183 40.088 69.9663 39.88 70.6543 39.88C71.0703 39.88 71.4143 39.912 71.6863 39.976V42.688C71.3023 42.544 70.8623 42.472 70.3663 42.472C69.5663 42.472 68.8863 42.8 68.3263 43.456C67.7663 44.096 67.4863 44.992 67.4863 46.144V52H64.8463ZM83.4296 50.44C82.2296 51.64 80.7416 52.24 78.9656 52.24C77.1896 52.24 75.6936 51.64 74.4776 50.44C73.2776 49.224 72.6776 47.744 72.6776 46C72.6776 44.256 73.2776 42.784 74.4776 41.584C75.6936 40.368 77.1896 39.76 78.9656 39.76C80.7416 39.76 82.2296 40.368 83.4296 41.584C84.6456 42.784 85.2536 44.256 85.2536 46C85.2536 47.744 84.6456 49.224 83.4296 50.44ZM78.9656 49.792C80.0056 49.792 80.8616 49.432 81.5336 48.712C82.2216 47.976 82.5656 47.072 82.5656 46C82.5656 44.928 82.2216 44.032 81.5336 43.312C80.8616 42.576 80.0056 42.208 78.9656 42.208C77.9096 42.208 77.0376 42.576 76.3496 43.312C75.6776 44.032 75.3416 44.928 75.3416 46C75.3416 47.072 75.6776 47.976 76.3496 48.712C77.0376 49.432 77.9096 49.792 78.9656 49.792ZM90.7408 40V53.272C90.7408 54.552 90.3568 55.536 89.5888 56.224C88.8368 56.912 87.8768 57.256 86.7088 57.256C86.2608 57.256 85.8848 57.232 85.5808 57.184V54.88C85.8048 54.912 86.0208 54.928 86.2288 54.928C87.4768 54.928 88.1008 54.248 88.1008 52.888V40H90.7408ZM89.4208 37.384C88.9408 37.384 88.5248 37.216 88.1728 36.88C87.8208 36.528 87.6448 36.104 87.6448 35.608C87.6448 35.128 87.8208 34.72 88.1728 34.384C88.5248 34.032 88.9408 33.856 89.4208 33.856C89.9168 33.856 90.3328 34.032 90.6688 34.384C91.0048 34.72 91.1728 35.128 91.1728 35.608C91.1728 36.104 91.0048 36.528 90.6688 36.88C90.3328 37.216 89.9168 37.384 89.4208 37.384ZM104.172 50.44C102.972 51.64 101.484 52.24 99.7078 52.24C97.9318 52.24 96.4358 51.64 95.2198 50.44C94.0198 49.224 93.4198 47.744 93.4198 46C93.4198 44.256 94.0198 42.784 95.2198 41.584C96.4358 40.368 97.9318 39.76 99.7078 39.76C101.484 39.76 102.972 40.368 104.172 41.584C105.388 42.784 105.996 44.256 105.996 46C105.996 47.744 105.388 49.224 104.172 50.44ZM99.7078 49.792C100.748 49.792 101.604 49.432 102.276 48.712C102.964 47.976 103.308 47.072 103.308 46C103.308 44.928 102.964 44.032 102.276 43.312C101.604 42.576 100.748 42.208 99.7078 42.208C98.6518 42.208 97.7798 42.576 97.0918 43.312C96.4198 44.032 96.0838 44.928 96.0838 46C96.0838 47.072 96.4198 47.976 97.0918 48.712C97.7798 49.432 98.6518 49.792 99.7078 49.792ZM109.971 37.384C109.491 37.384 109.075 37.216 108.723 36.88C108.371 36.528 108.195 36.104 108.195 35.608C108.195 35.128 108.371 34.72 108.723 34.384C109.075 34.032 109.491 33.856 109.971 33.856C110.467 33.856 110.883 34.032 111.219 34.384C111.555 34.72 111.723 35.128 111.723 35.608C111.723 36.104 111.555 36.528 111.219 36.88C110.883 37.216 110.467 37.384 109.971 37.384ZM108.651 52V40H111.291V52H108.651ZM116.159 37.384C115.679 37.384 115.263 37.216 114.911 36.88C114.559 36.528 114.383 36.104 114.383 35.608C114.383 35.128 114.559 34.72 114.911 34.384C115.263 34.032 115.679 33.856 116.159 33.856C116.655 33.856 117.071 34.032 117.407 34.384C117.743 34.72 117.911 35.128 117.911 35.608C117.911 36.104 117.743 36.528 117.407 36.88C117.071 37.216 116.655 37.384 116.159 37.384ZM114.839 52V40H117.479V52H114.839Z" fill="black"/>
</svg>
