<svg width="185" height="80" viewBox="0 0 185 80" fill="none" xmlns="http://www.w3.org/2000/svg">
<rect x="0.5" y="0.5" width="184" height="79" rx="3.5" stroke="#C5C5C5" stroke-opacity="0.76"/>
<path d="M93.848 36.8524C93.776 36.7409 93.6937 36.6278 93.608 36.5095C93.2683 36.0298 92.8645 35.5989 92.408 35.2287C92.3993 35.2208 92.3901 35.2134 92.3805 35.2065L92.3548 35.2013C92.312 35.1722 92.2897 35.1602 92.2897 35.1602C92.2415 35.1319 92.1895 35.1106 92.1354 35.0967C92.0909 35.0869 92.0455 35.0817 92 35.0813C91.9635 35.0814 91.9273 35.086 91.892 35.095C91.8032 35.1199 91.7205 35.1625 91.6485 35.2202C91.6211 35.239 91.5885 35.2648 91.5543 35.2939C91.0258 35.7459 90.564 36.2707 90.1828 36.8524C89.5978 37.7357 89.2844 38.771 89.2811 39.8304C89.2809 40.5458 89.4507 41.251 89.7766 41.8878L89.8297 41.989C89.852 42.0319 89.8777 42.073 89.9017 42.1159C90.2564 42.6697 90.6882 43.1702 91.184 43.6023C91.5028 43.8715 91.796 44.0995 92.06 44.2881C92.2314 44.163 92.4028 44.0361 92.5554 43.9058C92.6394 43.8372 92.7268 43.7669 92.7988 43.6966L92.8143 43.6829C92.8897 43.6161 92.9617 43.5492 93.032 43.4823L93.0663 43.448C93.128 43.3863 93.1914 43.3246 93.2497 43.2629C93.2703 43.2423 93.2891 43.22 93.308 43.1994L93.4554 43.04L93.5463 42.9303C93.5788 42.8908 93.6148 42.8514 93.6457 42.812C93.7074 42.7348 93.7674 42.6559 93.8171 42.5788C94.4112 41.785 94.7356 40.8219 94.7428 39.8304C94.7416 38.7717 94.4305 37.7364 93.848 36.8524Z" fill="#4E61FF"/>
<path d="M92.2708 47.6555L92.0223 47.5046C90.4297 48.2779 88.7291 49.6409 87.812 51.2457C90.5347 52.2586 93.532 52.2513 96.2497 51.2251C95.2571 49.6495 93.8582 48.5831 92.2708 47.6555Z" fill="#4E61FF"/>
<path d="M104 40.0019C104 37.9325 103.465 35.8983 102.447 34.0967C101.429 32.2951 99.9625 30.7874 98.1899 29.7199C96.4172 28.6524 94.3988 28.0615 92.3304 28.0046C90.2621 27.9476 88.2141 28.4264 86.3854 29.3947C84.5567 30.3629 83.0094 31.7876 81.8938 33.5304C80.7781 35.2732 80.132 37.2749 80.0182 39.3412C79.9043 41.4075 80.3267 43.4681 81.2441 45.3229C82.1616 47.1778 83.543 48.7639 85.2543 49.9272C85.3417 49.79 85.4943 49.562 85.6211 49.3751C85.748 49.1882 87.2617 47.076 89.576 45.8312C89.576 45.8312 89.5211 45.7884 89.4937 45.7644L89.4457 45.7215C88.2114 44.6482 87.3577 43.4704 86.8965 42.1914C86.8965 42.1776 86.8863 42.1656 86.8794 42.1502C86.641 41.5045 86.5062 40.8252 86.48 40.1374C86.4682 39.8476 86.4722 39.5575 86.492 39.2681C86.492 39.2579 86.492 39.2476 86.492 39.239C86.492 39.1653 86.492 39.119 86.492 39.119C86.5217 38.7147 86.5837 38.3133 86.6771 37.9188C87.1108 36.1186 88.1514 34.7539 89.1663 33.7903H89.1577C89.846 33.1291 90.6218 32.5655 91.4634 32.1153H91.4788C91.6383 32.0351 91.8146 31.994 91.9931 31.9953C92.1172 31.9941 92.2406 32.0138 92.3582 32.0535C92.3582 32.0535 92.5742 32.0878 93.3354 32.6142C93.4794 32.7102 93.6388 32.8234 93.8137 32.9571C95.2417 34.0424 97.5336 36.3346 97.5336 39.8408C97.5336 39.9848 97.5336 40.1271 97.5217 40.2694C97.5217 40.326 97.5114 40.3809 97.5062 40.4409C97.5062 40.5249 97.4942 40.6123 97.4839 40.6929C97.4736 40.7735 97.4634 40.8386 97.4514 40.9106C97.4394 40.9826 97.4342 41.0426 97.4222 41.1061C97.4102 41.1695 97.3879 41.2775 97.3691 41.353C97.3588 41.4061 97.3485 41.4593 97.3348 41.5124C97.3125 41.6033 97.2868 41.6839 97.2611 41.7799C97.2491 41.8245 97.2388 41.869 97.2251 41.9119C97.1942 42.0079 97.1617 42.1022 97.1274 42.1965C97.1154 42.2325 97.1034 42.2685 97.0897 42.3028C97.0519 42.404 97.0108 42.5034 96.9679 42.6028L96.9319 42.6868C96.8857 42.7914 96.8342 42.896 96.7828 42.9989C96.7708 43.0212 96.7605 43.0435 96.7502 43.0658C96.6937 43.172 96.6337 43.2783 96.5788 43.3846C96.5685 43.4018 96.5599 43.4189 96.5497 43.4344C96.4845 43.5458 96.4159 43.6538 96.3439 43.7618L96.3199 43.7978C96.2462 43.9093 96.1674 44.0207 96.0851 44.1305C96.0804 44.1391 96.0746 44.1472 96.0679 44.1545C95.9839 44.2676 95.8965 44.3791 95.8039 44.4974L95.7919 44.5111C95.6977 44.6242 95.5999 44.7357 95.4988 44.854C95.3959 44.9671 95.2897 45.0786 95.1782 45.1969C94.9497 45.4186 94.7114 45.6358 94.4634 45.8484L94.6245 45.9392C96.8531 47.2148 98.2982 49.2499 98.4285 49.4402C98.5588 49.6306 98.6805 49.8209 98.7611 49.9546C100.382 48.8509 101.707 47.3664 102.62 45.6311C103.534 43.8959 104.008 41.963 104 40.0019Z" fill="#4E61FF"/>
<path d="M92.0171 47.508L91.8903 47.4291C91.6005 47.2577 91.3863 47.1239 91.1531 46.9731C90.6067 46.618 90.0797 46.2339 89.5743 45.8226C87.26 47.0759 85.7497 49.1848 85.6194 49.3751C85.4891 49.5654 85.34 49.79 85.2526 49.9271C85.643 50.1941 86.0495 50.4369 86.4697 50.6541C86.9021 50.8798 87.3481 51.0785 87.8051 51.249C88.724 49.6442 90.4245 48.2812 92.0171 47.508Z" fill="white"/>
<path d="M92.0171 47.508L91.8903 47.4291C91.6005 47.2577 91.3863 47.1239 91.1531 46.9731C90.6067 46.618 90.0797 46.2339 89.5743 45.8226C87.26 47.0759 85.7497 49.1848 85.6194 49.3751C85.4891 49.5654 85.34 49.79 85.2526 49.9271C85.6323 50.1847 86.0267 50.4199 86.4337 50.6318C86.8776 50.8647 87.3357 51.0697 87.8051 51.2456C88.724 49.6442 90.4245 48.2812 92.0171 47.508Z" fill="url(#paint0_linear)"/>
<path d="M98.4131 49.4196C98.2828 49.2293 96.8428 47.1908 94.6091 45.9186L94.4479 45.8277C94.7017 45.6151 94.9399 45.398 95.1628 45.1762C95.2742 45.0665 95.3805 44.9551 95.4834 44.8333C95.5845 44.7219 95.6822 44.6104 95.7765 44.4904L95.7885 44.4767C95.8794 44.3653 95.9685 44.2538 96.0525 44.1338C96.0592 44.1265 96.0649 44.1185 96.0696 44.1098C96.1519 44.0001 96.2308 43.8886 96.3045 43.7772L96.3285 43.7412C96.4005 43.6332 96.4691 43.5252 96.5342 43.4137C96.5445 43.3983 96.5531 43.3812 96.5634 43.364C96.6234 43.2577 96.6834 43.1514 96.7348 43.0451C96.7451 43.0228 96.7554 43.0005 96.7674 42.9782C96.8188 42.8754 96.8702 42.7708 96.9165 42.6662L96.9525 42.5822C96.9954 42.4828 97.0365 42.3833 97.0742 42.2822C97.0879 42.2479 97.0999 42.2119 97.1119 42.1759C97.1462 42.0816 97.1788 41.9873 97.2096 41.8913C97.2234 41.8484 97.2336 41.8038 97.2456 41.7592C97.2714 41.6701 97.2971 41.5878 97.3194 41.4918C97.3331 41.4386 97.3434 41.3855 97.3536 41.3323C97.3725 41.25 97.3914 41.1609 97.4068 41.0854C97.4222 41.01 97.4256 40.9551 97.4359 40.89C97.4462 40.8248 97.4599 40.746 97.4685 40.6723C97.4771 40.5985 97.4839 40.5008 97.4908 40.4202C97.4908 40.3636 97.5028 40.3088 97.5062 40.2488C97.5062 40.1065 97.5182 39.9642 97.5182 39.8201C97.5182 36.314 95.2262 34.0217 93.7982 32.9365C93.6268 32.8027 93.4554 32.6896 93.3199 32.5936C92.5588 32.0672 92.3428 32.0329 92.3428 32.0329C92.232 31.9973 92.1163 31.9794 92 31.9798C91.8214 31.9785 91.6452 32.0196 91.4857 32.0998H91.4702C90.6303 32.5581 89.8573 33.1298 89.1731 33.7988H89.1817C88.16 34.7675 87.1194 36.1323 86.6857 37.9325C86.5922 38.327 86.5303 38.7283 86.5005 39.1326C86.5005 39.1326 86.5005 39.1789 86.5005 39.2527C86.5005 39.2527 86.5005 39.2715 86.5005 39.2818C86.4808 39.5711 86.4768 39.8613 86.4885 40.151C86.5147 40.8389 86.6495 41.5182 86.888 42.1639C86.888 42.1793 86.8983 42.1913 86.9051 42.205C87.3663 43.484 88.22 44.6619 89.456 45.7232L89.504 45.766C89.5314 45.79 89.5862 45.8329 89.5862 45.8329C90.0917 46.2442 90.6187 46.6282 91.1651 46.9833C91.3982 47.1342 91.6125 47.2645 91.9022 47.4394L92.0291 47.5182L92.2777 47.6691C93.8651 48.5966 95.2708 49.6631 96.2514 51.2421C97.1337 50.909 97.9733 50.4721 98.7525 49.9408C98.6651 49.8002 98.5536 49.6253 98.4131 49.4196ZM93.6491 42.8119C93.6182 42.8514 93.5822 42.8908 93.5497 42.9302L93.4588 43.04L93.3114 43.1994C93.2925 43.22 93.2737 43.2423 93.2531 43.2629C93.1948 43.3246 93.1314 43.3863 93.0697 43.448L93.0354 43.4823C92.9651 43.5492 92.8931 43.616 92.8177 43.6829L92.8022 43.6966C92.7234 43.7669 92.6428 43.8372 92.5588 43.9058C92.4011 44.0361 92.2348 44.163 92.0634 44.2881C91.7994 44.0927 91.5062 43.8646 91.1874 43.6023C90.6911 43.1681 90.2593 42.6652 89.9051 42.109C89.8811 42.0661 89.8554 42.025 89.8331 41.9821L89.7714 41.8775C89.4456 41.2407 89.2758 40.5355 89.276 39.8201C89.2794 38.762 89.5922 37.728 90.176 36.8455C90.5571 36.2638 91.0189 35.7391 91.5474 35.287C91.5817 35.2579 91.6142 35.2322 91.6417 35.2133C91.7136 35.1556 91.7964 35.1131 91.8851 35.0881C91.9229 35.0809 91.9615 35.0786 92 35.0813C92.0454 35.0811 92.0908 35.0857 92.1354 35.095C92.1895 35.1088 92.2415 35.1302 92.2897 35.1584C92.2897 35.1584 92.312 35.1704 92.3548 35.1996L92.3788 35.2133C92.3884 35.2202 92.3975 35.2277 92.4062 35.2356C92.8628 35.6057 93.2666 36.0366 93.6062 36.5163C93.6919 36.6295 93.7777 36.7426 93.8462 36.8592C94.4281 37.7411 94.7397 38.7738 94.7428 39.8304C94.7355 40.8198 94.4123 41.7809 93.8205 42.5736C93.7708 42.6559 93.7142 42.7348 93.6491 42.8119Z" fill="white"/>
<path opacity="0.7" d="M94.412 45.8089L94.448 45.8278C94.5611 45.7318 94.6897 45.6221 94.8251 45.4986C94.9965 45.3272 95.1371 45.2037 95.168 45.1677C95.2794 45.058 95.3857 44.9466 95.4885 44.8248C95.5897 44.7134 95.6874 44.6019 95.7817 44.4819L95.7937 44.4682C95.8845 44.3568 95.9737 44.2453 96.0577 44.1253C96.0643 44.118 96.0701 44.11 96.0748 44.1013C96.1571 43.9916 96.236 43.8801 96.3097 43.7687L96.3337 43.7327C96.4057 43.6247 96.4743 43.5167 96.5394 43.4069L96.5685 43.3555C96.6285 43.2492 96.6885 43.1429 96.74 43.0366C96.7503 43.0143 96.7605 42.992 96.7725 42.9697C96.824 42.8669 96.8754 42.7623 96.9217 42.6577L96.9577 42.5737C97.0005 42.4743 97.0417 42.3748 97.0794 42.2737C97.0931 42.2394 97.1051 42.2034 97.1171 42.1674C97.1514 42.0731 97.184 41.9788 97.2148 41.8828C97.2285 41.8399 97.2388 41.7953 97.2508 41.7507C97.2765 41.6616 97.3022 41.5793 97.3245 41.4833C97.3382 41.4301 97.3485 41.377 97.3588 41.3238C97.3777 41.2415 97.3965 41.1524 97.412 41.0769C97.4274 41.0015 97.4308 40.9466 97.4411 40.8815C97.4514 40.8163 97.4651 40.7375 97.4737 40.6637C97.4822 40.59 97.4891 40.4923 97.496 40.4117C97.496 40.3551 97.508 40.3003 97.5114 40.2403C97.5114 40.098 97.5234 39.9557 97.5234 39.8116C97.5234 35.5014 94.0588 33.0257 92.996 32.369L92.3788 35.2117C92.9406 35.6889 93.4348 36.2403 93.848 36.8507C94.4309 37.7352 94.742 38.7711 94.7428 39.8305C94.7355 40.8198 94.4124 41.7809 93.8206 42.5737C93.7657 42.6508 93.7057 42.7297 93.6491 42.8069C93.6183 42.8463 93.5823 42.8857 93.5497 42.9252L93.4588 43.0349L93.3114 43.1943C93.2926 43.2149 93.2737 43.2372 93.2531 43.2578C93.1948 43.3195 93.1314 43.3812 93.0697 43.4429L93.0354 43.4772C92.9651 43.5441 92.8931 43.611 92.8177 43.6778L92.8023 43.6915C92.7234 43.7618 92.6428 43.8321 92.5588 43.9007C92.4011 44.031 92.2348 44.1579 92.0634 44.283C92.2571 44.4236 92.7114 44.7374 93.2051 45.0477C93.8857 45.4883 93.9885 45.5689 94.412 45.8089Z" fill="url(#paint1_linear)"/>
<defs>
<linearGradient id="paint0_linear" x1="91.3863" y1="44.8025" x2="86.8615" y2="51.2159" gradientUnits="userSpaceOnUse">
<stop stop-color="#3750E2" stop-opacity="0.6"/>
<stop offset="0.19" stop-color="#3851E7" stop-opacity="0.57"/>
<stop offset="0.21" stop-color="#3248DB" stop-opacity="0.51"/>
<stop offset="0.26" stop-color="#2535C1" stop-opacity="0.37"/>
<stop offset="0.31" stop-color="#1924AB" stop-opacity="0.26"/>
<stop offset="0.37" stop-color="#101799" stop-opacity="0.16"/>
<stop offset="0.44" stop-color="#090D8C" stop-opacity="0.09"/>
<stop offset="0.53" stop-color="#040582" stop-opacity="0.04"/>
<stop offset="0.65" stop-color="#01017D" stop-opacity="0.01"/>
<stop offset="0.98" stop-color="#00007B" stop-opacity="0"/>
</linearGradient>
<linearGradient id="paint1_linear" x1="88.5286" y1="44.4442" x2="92.3742" y2="40.5288" gradientUnits="userSpaceOnUse">
<stop offset="0.05" stop-color="#3750E2" stop-opacity="0.6"/>
<stop offset="0.43" stop-color="#3851E7" stop-opacity="0.57"/>
<stop offset="0.44" stop-color="#364DE2" stop-opacity="0.55"/>
<stop offset="0.6" stop-color="#1F2CB6" stop-opacity="0.31"/>
<stop offset="0.74" stop-color="#0E1496" stop-opacity="0.14"/>
<stop offset="0.85" stop-color="#040582" stop-opacity="0.04"/>
<stop offset="0.92" stop-color="#00007B" stop-opacity="0"/>
</linearGradient>
</defs>
</svg>
