<svg width="185" height="80" viewBox="0 0 185 80" fill="none" xmlns="http://www.w3.org/2000/svg">
<rect x="0.5" y="0.5" width="184" height="79" rx="3.5" stroke="#C5C5C5" stroke-opacity="0.76"/>
<path d="M169.736 48.4706H135V31.5294H169.736V48.4706ZM152.392 43.9789C153.89 43.978 155.327 43.5571 156.385 42.8087C157.443 42.0604 158.037 41.0459 158.036 39.9884C158.035 38.931 157.438 37.9172 156.378 37.1701C155.318 36.423 153.881 36.0038 152.383 36.0047C151.641 36.0052 150.907 36.1087 150.222 36.3095C149.537 36.5103 148.914 36.8043 148.39 37.1749C147.866 37.5454 147.451 37.9852 147.167 38.4691C146.884 38.953 146.739 39.4716 146.739 39.9952C146.74 40.5187 146.887 41.0371 147.171 41.5207C147.456 42.0043 147.872 42.4435 148.397 42.8135C148.922 43.1834 149.545 43.4767 150.231 43.6767C150.916 43.8766 151.651 43.9793 152.392 43.9789ZM163.049 36.2563H160.495V43.7392H163.049V36.2563ZM144.249 43.7549V36.2503H141.751V43.7549H144.249Z" fill="black"/>
<path d="M149.341 39.9635C149.353 38.7526 150.692 37.8434 152.439 37.8576C153.245 37.862 154.016 38.0924 154.581 38.4979C155.147 38.9034 155.461 39.4508 155.455 40.0198C155.448 40.5888 155.122 41.1328 154.548 41.532C153.973 41.9312 153.197 42.1529 152.391 42.1485C150.659 42.1552 149.329 41.2027 149.341 39.9635Z" fill="black"/>
<path d="M27.088 54V36.96H29.896V54H27.088ZM36.3586 50.472C37.0466 51.16 37.8946 51.504 38.9026 51.504C39.9106 51.504 40.7586 51.16 41.4466 50.472C42.1346 49.768 42.4786 48.888 42.4786 47.832C42.4786 46.776 42.1346 45.904 41.4466 45.216C40.7586 44.512 39.9106 44.16 38.9026 44.16C37.8946 44.16 37.0466 44.512 36.3586 45.216C35.6706 45.904 35.3266 46.776 35.3266 47.832C35.3266 48.888 35.6706 49.768 36.3586 50.472ZM38.6626 59.256C37.4946 59.256 36.4146 59.056 35.4226 58.656C34.4306 58.272 33.6386 57.736 33.0466 57.048L34.6546 55.152C35.7266 56.32 37.0546 56.904 38.6386 56.904C39.6786 56.904 40.5426 56.568 41.2306 55.896C41.9186 55.24 42.2626 54.328 42.2626 53.16V52.056C41.8786 52.6 41.3426 53.048 40.6546 53.4C39.9666 53.752 39.2226 53.928 38.4226 53.928C36.8066 53.928 35.4386 53.344 34.3186 52.176C33.2146 50.992 32.6626 49.544 32.6626 47.832C32.6626 46.136 33.2146 44.704 34.3186 43.536C35.4386 42.352 36.8066 41.76 38.4226 41.76C39.2226 41.76 39.9666 41.936 40.6546 42.288C41.3426 42.624 41.8786 43.064 42.2626 43.608V42H44.9026V53.184C44.9026 55.184 44.3266 56.696 43.1746 57.72C42.0386 58.744 40.5346 59.256 38.6626 59.256ZM54.9597 54.24C54.1437 54.24 53.3837 54.064 52.6797 53.712C51.9917 53.344 51.4637 52.904 51.0957 52.392V54H48.4557V36H51.0957V43.608C51.4637 43.096 51.9917 42.664 52.6797 42.312C53.3837 41.944 54.1437 41.76 54.9597 41.76C56.5917 41.76 57.9597 42.368 59.0637 43.584C60.1837 44.8 60.7437 46.272 60.7437 48C60.7437 49.728 60.1837 51.2 59.0637 52.416C57.9597 53.632 56.5917 54.24 54.9597 54.24ZM54.4797 51.84C55.5197 51.84 56.3757 51.472 57.0477 50.736C57.7197 50 58.0557 49.088 58.0557 48C58.0557 46.912 57.7197 46 57.0477 45.264C56.3757 44.528 55.5197 44.16 54.4797 44.16C53.4237 44.16 52.5597 44.528 51.8877 45.264C51.2157 46 50.8797 46.912 50.8797 48C50.8797 49.088 51.2157 50 51.8877 50.736C52.5597 51.472 53.4237 51.84 54.4797 51.84ZM63.1443 48.576V45.984H69.6003V48.576H63.1443ZM80.8707 51.576C82.5347 51.576 83.9427 50.984 85.0947 49.8C86.2467 48.616 86.8227 47.176 86.8227 45.48C86.8227 43.784 86.2467 42.344 85.0947 41.16C83.9427 39.976 82.5347 39.384 80.8707 39.384C79.1907 39.384 77.7747 39.976 76.6227 41.16C75.4707 42.344 74.8947 43.784 74.8947 45.48C74.8947 47.176 75.4707 48.616 76.6227 49.8C77.7747 50.984 79.1907 51.576 80.8707 51.576ZM87.1107 51.72C85.3987 53.432 83.3187 54.288 80.8707 54.288C78.4227 54.288 76.3427 53.44 74.6307 51.744C72.9187 50.032 72.0627 47.944 72.0627 45.48C72.0627 43.016 72.9187 40.936 74.6307 39.24C76.3427 37.528 78.4227 36.672 80.8707 36.672C83.3187 36.672 85.3987 37.528 87.1107 39.24C88.8227 40.952 89.6787 43.032 89.6787 45.48C89.6787 47.928 88.8227 50.008 87.1107 51.72ZM92.1599 48.576V45.984H98.6159V48.576H92.1599ZM111.734 52.44C110.534 53.64 109.046 54.24 107.27 54.24C105.494 54.24 103.998 53.64 102.782 52.44C101.582 51.224 100.982 49.744 100.982 48C100.982 46.256 101.582 44.784 102.782 43.584C103.998 42.368 105.494 41.76 107.27 41.76C109.046 41.76 110.534 42.368 111.734 43.584C112.95 44.784 113.558 46.256 113.558 48C113.558 49.744 112.95 51.224 111.734 52.44ZM107.27 51.792C108.31 51.792 109.166 51.432 109.838 50.712C110.526 49.976 110.87 49.072 110.87 48C110.87 46.928 110.526 46.032 109.838 45.312C109.166 44.576 108.31 44.208 107.27 44.208C106.214 44.208 105.342 44.576 104.654 45.312C103.982 46.032 103.646 46.928 103.646 48C103.646 49.072 103.982 49.976 104.654 50.712C105.342 51.432 106.214 51.792 107.27 51.792ZM117.534 39.384C117.054 39.384 116.638 39.216 116.286 38.88C115.934 38.528 115.758 38.104 115.758 37.608C115.758 37.128 115.934 36.72 116.286 36.384C116.638 36.032 117.054 35.856 117.534 35.856C118.03 35.856 118.446 36.032 118.782 36.384C119.118 36.72 119.286 37.128 119.286 37.608C119.286 38.104 119.118 38.528 118.782 38.88C118.446 39.216 118.03 39.384 117.534 39.384ZM116.214 54V42H118.854V54H116.214ZM122.401 54V36H125.041V54H122.401Z" fill="black"/>
</svg>
