<svg width="25" height="25" viewBox="0 0 25 25" fill="none" xmlns="http://www.w3.org/2000/svg">
<path d="M23.1514 0.000174786H1.84859C1.60913 -0.00313094 1.37135 0.0404836 1.14885 0.128528C0.926346 0.216572 0.72347 0.347321 0.551808 0.513308C0.380145 0.679294 0.24306 0.877268 0.14838 1.09592C0.0537002 1.31457 0.00328017 1.54963 0 1.78765V23.2123C0.00328017 23.4504 0.0537002 23.6854 0.14838 23.9041C0.24306 24.1227 0.380145 24.3207 0.551808 24.4867C0.72347 24.6527 0.926346 24.7834 1.14885 24.8715C1.37135 24.9595 1.60913 25.0031 1.84859 24.9998H23.1514C23.3909 25.0031 23.6286 24.9595 23.8511 24.8715C24.0737 24.7834 24.2765 24.6527 24.4482 24.4867C24.6199 24.3207 24.7569 24.1227 24.8516 23.9041C24.9463 23.6854 24.9967 23.4504 25 23.2123V1.78765C24.9967 1.54963 24.9463 1.31457 24.8516 1.09592C24.7569 0.877268 24.6199 0.679294 24.4482 0.513308C24.2765 0.347321 24.0737 0.216572 23.8511 0.128528C23.6286 0.0404836 23.3909 -0.00313094 23.1514 0.000174786ZM7.583 20.9249H3.81036V9.67504H7.583V20.9249ZM5.69668 8.10006C5.17639 8.10006 4.6774 7.89462 4.3095 7.52893C3.9416 7.16324 3.73491 6.66725 3.73491 6.15009C3.73491 5.63292 3.9416 5.13694 4.3095 4.77125C4.6774 4.40556 5.17639 4.20012 5.69668 4.20012C5.97296 4.16897 6.25274 4.19618 6.5177 4.27997C6.78266 4.36375 7.02683 4.50222 7.23423 4.68631C7.44162 4.8704 7.60755 5.09595 7.72117 5.3482C7.83478 5.60045 7.89351 5.87371 7.89351 6.15009C7.89351 6.42646 7.83478 6.69972 7.72117 6.95197C7.60755 7.20423 7.44162 7.42978 7.23423 7.61387C7.02683 7.79795 6.78266 7.93642 6.5177 8.02021C6.25274 8.10399 5.97296 8.1312 5.69668 8.10006ZM21.1896 20.9249H17.417V14.8875C17.417 13.375 16.8763 12.3875 15.5055 12.3875C15.0813 12.3906 14.6682 12.5228 14.322 12.7665C13.9757 13.0101 13.7129 13.3533 13.5689 13.75C13.4705 14.0438 13.4279 14.3532 13.4432 14.6625V20.9124H9.67052C9.67052 20.9124 9.67052 10.6875 9.67052 9.66254H13.4432V11.25C13.7859 10.6589 14.2843 10.1719 14.8849 9.84154C15.4854 9.51115 16.1652 9.34986 16.8511 9.37504C19.3662 9.37504 21.1896 10.9875 21.1896 14.45V20.9249Z" fill="white"/>
</svg>
