<svg width="185" height="80" viewBox="0 0 185 80" fill="none" xmlns="http://www.w3.org/2000/svg">
<rect x="0.5" y="0.5" width="184" height="79" rx="3.5" stroke="#C5C5C5" stroke-opacity="0.76"/>
<path d="M127.906 36.0575C127.901 37.6428 127.428 39.1915 126.546 40.5085C125.663 41.8255 124.411 42.852 122.946 43.4588C121.481 44.0657 119.87 44.2257 118.315 43.9187C116.759 43.6118 115.329 42.8516 114.205 41.7339C113.081 40.6161 112.312 39.1908 111.996 37.6372C111.68 36.0837 111.831 34.4714 112.429 33.0032C113.027 31.535 114.046 30.2766 115.358 29.3864C116.67 28.4961 118.216 28.0138 119.801 28.0002C120.863 27.9934 121.916 28.1969 122.9 28.5989C123.883 29.0008 124.777 29.5933 125.53 30.3422C126.284 31.0911 126.881 31.9817 127.289 32.9625C127.697 33.9434 127.906 34.9952 127.906 36.0575ZM123.881 36.123C123.888 35.5923 123.79 35.0654 123.592 34.5729C123.394 34.0805 123.1 33.6323 122.727 33.2544C122.354 32.8765 121.91 32.5765 121.42 32.3718C120.93 32.167 120.405 32.0616 119.874 32.0616C118.826 32.0858 117.829 32.5172 117.095 33.2644C116.36 34.0116 115.945 35.0157 115.938 36.0637C115.932 37.1116 116.334 38.1209 117.059 38.8773C117.784 39.6338 118.776 40.0778 119.823 40.1153C120.352 40.122 120.878 40.0238 121.369 39.8264C121.86 39.629 122.307 39.3362 122.684 38.965C123.061 38.5938 123.361 38.1516 123.567 37.6638C123.772 37.176 123.879 36.6523 123.881 36.123Z" fill="#F90553"/>
<path d="M60.4386 36.0793C60.4536 34.4942 60.9373 32.9489 61.8285 31.638C62.7198 30.327 63.9789 29.309 65.4474 28.712C66.9159 28.115 68.5282 27.9657 70.0813 28.2828C71.6345 28.6 73.0592 29.3695 74.176 30.4944C75.2929 31.6194 76.0521 33.0495 76.358 34.6049C76.664 36.1603 76.503 37.7715 75.8954 39.2356C75.2879 40.6998 74.2608 41.9515 72.9435 42.8333C71.6261 43.7151 70.0774 44.1876 68.4922 44.1913C67.4298 44.1908 66.378 43.9802 65.3973 43.5717C64.4166 43.1631 63.5263 42.5647 62.7778 41.8108C62.0293 41.0568 61.4372 40.1623 61.0358 39.1786C60.6343 38.195 60.4314 37.1417 60.4386 36.0793ZM64.4636 36.1376C64.4673 36.6678 64.5763 37.192 64.7841 37.6798C64.992 38.1676 65.2946 38.6093 65.6744 38.9793C66.0542 39.3493 66.5037 39.6402 66.9968 39.8352C67.4898 40.0302 68.0167 40.1254 68.5469 40.1152C69.595 40.0745 70.5859 39.6265 71.3089 38.8666C72.0319 38.1067 72.43 37.0947 72.4186 36.0459C72.4072 34.9971 71.9872 33.994 71.2479 33.25C70.5086 32.506 69.5082 32.0796 68.4594 32.0616C67.9283 32.063 67.4027 32.1699 66.9133 32.3762C66.4239 32.5825 65.9804 32.8841 65.6085 33.2634C65.2367 33.6427 64.944 34.0921 64.7475 34.5855C64.5509 35.0789 64.4544 35.6065 64.4636 36.1376Z" fill="#F90553"/>
<path d="M95.7093 29.5337C96.1246 39.4851 95.968 41.9183 85.146 47.9249L83.3903 44.5337C86.1732 42.4392 89.6992 41.1461 91.0797 37.642C91.5423 36.4691 91.4439 35.074 91.6334 33.5514H83.9221V29.5446L95.7093 29.5337Z" fill="#F90755"/>
<path d="M117.856 45.2439C117.914 46.2347 117.958 47.0069 118.009 47.8775H121.746C121.819 47.0324 121.892 46.2201 121.976 45.2658L125.884 44.7048C125.964 45.5936 126.034 46.4059 126.121 47.3821L130.193 46.446L131.352 50.1832C123.582 52.6055 116.086 52.6128 108.404 50.1614C108.819 48.8574 109.183 47.7282 109.587 46.4605L113.62 47.3639C113.722 46.4496 113.806 45.641 113.904 44.734L117.856 45.2439Z" fill="#F90755"/>
<path d="M74.7428 47.3858L78.7132 46.446L79.9954 50.1469C72.2841 52.6129 64.7878 52.6092 57 50.1869C57.397 48.8829 57.7576 47.7027 58.1401 46.4533L62.238 47.3858L62.4128 44.7413L66.3686 45.244C66.4342 46.1437 66.4888 46.9123 66.558 47.8302H70.3354C70.3791 47.0325 70.4228 46.2639 70.4774 45.3059L74.4369 44.6976C74.5425 45.6228 74.6372 46.4351 74.7428 47.3858Z" fill="#F90755"/>
<path d="M103.763 51.4801H99.8655V28.3535H103.763V51.4801Z" fill="#F90150"/>
</svg>
