<svg width="185" height="80" viewBox="0 0 185 80" fill="none" xmlns="http://www.w3.org/2000/svg">
<rect x="0.5" y="0.5" width="184" height="79" rx="3.5" stroke="#C5C5C5" stroke-opacity="0.76"/>
<path d="M95.1237 28C96.756 28.4594 97.8442 29.4366 98.0219 31.1924C98.1203 32.3233 98.0595 33.4624 97.8414 34.5764C96.4354 42.2909 91.9979 47.6236 84.933 50.8341C82.9606 51.7321 80.8842 50.8049 80.1624 48.7687C80.118 48.6424 80.1416 48.4911 80 48.4037V47.0157C80.186 45.7068 80.9591 44.8865 82.1361 44.359C84.0474 43.504 85.8088 42.4033 87.2273 40.8432C89.5217 38.317 90.9083 35.3995 90.9278 31.9183C90.9361 30.5303 91.383 29.3547 92.542 28.49C92.9973 28.1485 93.5136 28.1332 94.0189 28H95.1237Z" fill="#FE1F5A"/>
<ellipse cx="102.326" cy="47.9748" rx="4.02522" ry="4.02522" fill="#FE1F5A"/>
</svg>
