<svg width="185" height="80" viewBox="0 0 185 80" fill="none" xmlns="http://www.w3.org/2000/svg">
<rect x="0.5" y="0.5" width="184" height="79" rx="3.5" stroke="#C5C5C5" stroke-opacity="0.76"/>
<path fill-rule="evenodd" clip-rule="evenodd" d="M64 40.2417C64 41.2474 64.0389 41.9027 64.2791 42.863C64.4284 43.4599 64.6426 44.0114 64.8892 44.5629C65.0645 44.9522 65.2852 45.309 65.4994 45.6724C65.8174 46.2109 66.2393 46.6521 66.6352 47.1192C66.7651 47.275 66.9403 47.3982 67.0766 47.541C67.174 47.6448 67.2713 47.7162 67.3817 47.807C67.4401 47.8589 67.4661 47.8849 67.531 47.9368L68.0308 48.3066C68.5955 48.7218 68.9265 48.8581 69.4977 49.1501C69.7443 49.2733 70.0364 49.3901 70.309 49.481C71.2177 49.7989 72.1913 49.9741 73.1779 50H73.7167C74.5994 49.9741 75.4757 49.8313 76.2935 49.5523L77.2152 49.202C77.9941 48.8646 78.9287 48.2936 79.5454 47.7162C79.766 47.5085 79.9932 47.3204 80.2009 47.0998C80.3048 46.9895 80.3956 46.8597 80.5125 46.7559C80.5904 46.8986 81.2654 47.5215 81.4017 47.6253C82.0638 48.1638 82.8362 48.6959 83.6345 49.0203L84.5108 49.3512C84.673 49.4031 84.8158 49.442 84.9846 49.4939L85.7116 49.6561C85.8154 49.6691 85.9063 49.6886 85.9907 49.6951C88.0417 50 90.1448 49.5394 91.9167 48.4883C92.0271 48.4234 92.105 48.365 92.2153 48.3001C92.4165 48.1833 92.5983 48.0341 92.7865 47.8978C92.8838 47.8265 92.9682 47.7616 93.0526 47.6772C93.1045 47.6318 93.1305 47.6188 93.1824 47.5734L93.5784 47.2101C93.5978 47.1906 93.5849 47.2036 93.6108 47.1776C93.6108 47.1776 93.6173 47.1711 93.6238 47.1647L93.7406 47.0479C93.8315 46.9441 93.9548 46.8467 94.0392 46.7364C94.2469 46.4574 94.4222 46.2758 94.6883 45.9189C94.7597 45.8216 94.8181 45.7308 94.883 45.6269C95.0128 45.4323 95.1426 45.2312 95.2465 45.0171C95.3049 44.8938 95.3568 44.8159 95.4152 44.6991C95.6165 44.3033 96.0448 43.3301 96.0773 42.9278C96.2006 43.0706 96.3694 43.4534 96.4603 43.6221C96.5901 43.8557 96.6939 44.1022 96.8367 44.3293L98.3361 47.1517C98.3815 47.249 98.4205 47.2944 98.4659 47.3853C98.6411 47.7356 98.8878 48.2482 99.1085 48.5402C99.3227 48.8256 99.5563 49.0333 99.8679 49.2214C100.744 49.747 101.919 49.6561 102.711 49.0333C102.789 48.9749 102.847 48.923 102.912 48.8581C103.042 48.7283 103.172 48.5921 103.269 48.4299C103.496 48.06 103.756 47.4891 103.944 47.1776C103.996 47.0868 104.028 47.0219 104.074 46.9311L104.742 45.6724C104.794 45.5686 104.84 45.5037 104.885 45.4128C105.177 44.8224 105.515 44.2385 105.82 43.6545L106.235 42.8824C106.599 42.2141 106.936 41.5329 107.313 40.8646L108.118 39.3398C108.17 39.249 108.202 39.1906 108.254 39.0933C108.306 38.9895 108.345 38.9376 108.397 38.8338L108.669 38.3212C108.721 38.2368 108.754 38.159 108.799 38.0681L110.279 35.2912C110.74 34.4542 110.701 33.481 110.221 32.6699C110.169 32.5791 110.13 32.5402 110.071 32.4558L109.864 32.2222C109.831 32.1898 109.851 32.2093 109.818 32.1833L109.526 31.9432C109.305 31.7746 109.065 31.6772 108.799 31.5929C108.436 31.4696 107.962 31.4566 107.559 31.5345C106.982 31.6513 106.586 31.9173 106.196 32.2936C106.093 32.3974 105.956 32.5791 105.885 32.7024L105.521 33.3966C105.482 33.4745 105.437 33.5458 105.398 33.6302C105.32 33.7859 105.242 33.9481 105.158 34.1103L102.269 39.7421C102.231 39.82 102.185 39.8978 102.146 39.9757L101.912 40.4364C101.887 40.4818 101.88 40.5012 101.854 40.5467C101.835 40.5856 101.841 40.5726 101.828 40.605C101.809 40.6375 101.815 40.6375 101.796 40.6764C101.568 41.0787 101.354 41.468 101.244 41.9222L101.186 42.1168C101.186 42.1233 101.179 42.1428 101.173 42.1492C101.153 42.1947 101.166 42.1687 101.153 42.1882C101.095 41.9286 101.023 41.6432 100.9 41.4031C100.861 41.3252 100.822 41.2474 100.777 41.163L96.5771 32.9879C96.5511 32.9424 96.5446 32.9295 96.5187 32.8776C96.1682 32.1768 95.3893 31.5799 94.5325 31.4891C94.4416 31.4826 94.2664 31.4566 94.195 31.4631C93.2408 31.541 92.4425 31.9692 91.9946 32.8062C91.6636 33.4226 91.6117 34.0909 91.7999 34.7656C91.9232 35.2133 92.3386 35.8621 92.5658 36.3098C92.6112 36.4007 92.6502 36.4656 92.7021 36.5564L93.6433 38.3277C92.079 38.3277 90.5212 38.3277 88.9569 38.3277C88.2559 38.3277 87.6198 38.3796 87.1395 38.8597C86.9253 39.0738 86.7696 39.2425 86.6333 39.5215C86.0621 40.657 86.5683 42.1168 87.7626 42.571C88.2365 42.7527 88.6843 42.7137 89.3139 42.7137C89.8851 42.7137 90.4563 42.7137 91.034 42.7137C90.9561 42.8565 90.8393 43.0122 90.7354 43.1355C90.307 43.6286 90.1642 43.7843 89.5801 44.1606C89.5346 44.193 89.5216 44.1995 89.4762 44.2255C89.4308 44.245 89.4048 44.2644 89.3529 44.2904C88.2495 44.8548 86.6722 44.9457 85.5688 44.3877C85.2313 44.219 84.9132 44.0308 84.6341 43.7778C84.355 43.5312 84.1148 43.2522 83.8942 42.9473C83.8228 42.8435 83.7643 42.7397 83.6994 42.6294C83.0958 41.5783 82.9595 40.1898 83.3489 39.0349C83.4138 38.8467 83.4723 38.678 83.5501 38.5158L83.9591 37.8216C84.1538 37.5361 84.4004 37.2896 84.6601 37.0625C84.9911 36.764 85.3805 36.5434 85.7959 36.3747C86.6982 36.0114 86.8929 36.2579 87.7432 35.4015C87.8665 35.2782 87.9574 35.116 88.0482 34.9668C88.4247 34.3504 88.4701 33.3771 88.1586 32.7283C88.0288 32.4558 87.8665 32.2093 87.6588 31.9952L87.5809 31.9238C87.4057 31.7681 87.2304 31.6188 87.0162 31.515C85.9582 30.983 84.6666 31.4047 83.6605 31.8329L82.7842 32.2741C82.2131 32.618 81.7782 32.9165 81.2654 33.3642C81.0512 33.5458 80.7656 33.7989 80.6033 34.013L80.4216 34.2141C80.0776 34.6229 79.7595 35.0381 79.4804 35.4988C79.3441 35.7259 79.2338 35.9205 79.1105 36.1671C78.4809 37.4193 78.0979 38.7754 78.0979 40.4104C78.0979 40.8711 78.1304 41.3123 78.1888 41.7405C78.1953 41.7859 78.2277 41.9481 78.2277 42C78.2212 42.1168 78.0395 42.3374 77.9681 42.4412L77.0464 43.5312L76.657 43.8621C76.605 43.9011 76.5596 43.94 76.5012 43.9854C76.4363 44.0308 76.3908 44.0568 76.3259 44.1087C75.6834 44.5759 74.5864 44.9911 73.7491 44.9911C73.496 44.9911 73.2169 45.0106 72.9572 44.9781C72.8534 44.9651 72.795 44.9587 72.6911 44.9457C72.4055 44.9003 72.042 44.7965 71.7954 44.6926C70.7569 44.2644 69.9196 43.4858 69.4328 42.4801C68.7642 41.0852 68.881 39.4826 69.6664 38.1655C70.0299 37.5556 70.5622 37.0495 71.1723 36.6797L71.75 36.3877L72.3925 36.1801C72.6132 36.1152 72.8664 36.0892 73.113 36.0568C73.7751 35.9595 74.2684 36.0114 74.8201 35.6221C74.859 35.5961 74.898 35.5637 74.9434 35.5312C75.4692 35.103 75.904 34.4477 75.904 33.6951C75.904 33.1306 75.8326 32.7218 75.5665 32.2741C75.5276 32.2093 75.5016 32.1574 75.4497 32.0925C75.1706 31.7226 74.885 31.4761 74.4501 31.2685C73.5025 30.8078 71.9252 31.1387 71.036 31.3463L70.3739 31.5475C70.2181 31.5994 70.1013 31.6448 69.9585 31.7032C69.8157 31.7616 69.6859 31.82 69.5431 31.8784C69.0238 32.0925 68.5305 32.4104 68.0697 32.7153C67.6089 33.0203 67.1935 33.3901 66.804 33.7794C66.6028 33.9806 66.4275 34.1492 66.2523 34.3698C65.8174 34.9084 65.402 35.4664 65.0904 36.0892C65.0515 36.1671 65.019 36.2125 64.9866 36.2839C64.9476 36.3682 64.9282 36.4136 64.8957 36.485L64.5582 37.296C64.2207 38.1914 64.0065 39.249 64.0065 40.2417H64Z" fill="#EE2E24"/>
<path fill-rule="evenodd" clip-rule="evenodd" d="M115.199 31.7875L115.206 31.7421C115.095 31.7161 114.959 31.6577 114.855 31.6188C114.407 31.4501 114.569 31.4501 114.135 31.6123C114.024 31.6512 113.868 31.6966 113.778 31.7421V31.1257L112.823 30.5936L112.759 30.5872C112.518 30.6975 111.739 30.9505 111.584 31.0348C110.818 31.4631 111.331 32.7023 112.246 32.3325L113.434 31.8913C113.511 31.8653 113.667 31.7875 113.752 31.781C113.752 32.06 113.719 32.8256 113.765 33.0397C113.875 33.5653 114.505 33.8053 114.946 33.455C115.063 33.3641 115.16 33.2149 115.199 33.0462C115.232 32.897 115.257 31.9237 115.199 31.7745V31.7875Z" fill="#EE2E24"/>
<path fill-rule="evenodd" clip-rule="evenodd" d="M114.485 28.5239V28.6083L114.862 29.6659C114.959 29.6594 115.55 29.309 115.679 29.2311C115.744 29.1922 115.744 29.1468 115.77 29.2117C115.816 29.1403 115.757 29.1792 115.829 29.1144L116.523 27.1354C116.582 26.9667 116.621 26.9148 116.614 26.7007C116.614 26.3179 116.328 26.0519 116.004 26H115.777C115.634 26.026 115.498 26.0908 115.381 26.2076C115.264 26.3244 115.251 26.3698 115.186 26.5385L114.485 28.5239Z" fill="#F26F21"/>
<path fill-rule="evenodd" clip-rule="evenodd" d="M113.148 29.1273L113.187 29.1857L113.868 29.562C113.953 29.6139 114.024 29.6399 114.096 29.6918L114.479 28.6083V28.5239L113.92 26.9343C113.803 26.6034 113.713 26.1103 113.252 26.013C113.232 26.0065 113.206 26.0065 113.187 26H112.966C112.642 26.0454 112.369 26.292 112.343 26.6878C112.33 26.8954 112.499 27.3106 112.577 27.5118C112.681 27.7843 112.758 28.0503 112.856 28.3098C112.908 28.4396 112.947 28.5693 112.992 28.6991C113.018 28.777 113.031 28.8289 113.064 28.9067C113.096 28.9911 113.115 29.03 113.135 29.1208L113.148 29.1273Z" fill="#EE2E24"/>
<path fill-rule="evenodd" clip-rule="evenodd" d="M115.835 29.1143C115.764 29.1792 115.822 29.1402 115.777 29.2116L115.394 30.3016L116.16 30.5871H116.225L117.808 29.6788C118.087 29.5231 118.496 29.3154 118.38 28.7639C118.289 28.3487 117.867 28.1216 117.471 28.2189C117.328 28.2578 116.387 28.8158 116.173 28.9326C116.056 28.9975 115.958 29.0624 115.842 29.1143H115.835Z" fill="#EE2E24"/>
<path fill-rule="evenodd" clip-rule="evenodd" d="M112.765 30.5937L112.83 30.6001C112.908 30.5353 113.479 30.3601 113.596 30.3017C113.557 30.2173 113.531 30.1135 113.498 30.0227L113.297 29.4582C113.271 29.3739 113.232 29.2571 113.193 29.1792L113.154 29.1208L112.194 28.5693C112.109 28.5239 111.636 28.2449 111.545 28.219C111.428 28.1865 111.201 28.1865 111.084 28.2319C110.863 28.3098 110.643 28.5304 110.61 28.7769C110.519 29.4387 111.019 29.575 111.493 29.8605L112.453 30.4055C112.525 30.4444 112.726 30.5482 112.771 30.5872L112.765 30.5937Z" fill="#F26F21"/>
<path fill-rule="evenodd" clip-rule="evenodd" d="M115.206 31.7421L115.199 31.7875C115.296 31.794 115.705 31.9562 115.816 32.0016C115.913 32.0405 116.004 32.073 116.108 32.1119L116.705 32.339C117.042 32.4752 117.373 32.4104 117.594 32.1314C117.886 31.7615 117.75 31.236 117.386 31.0413C117.296 30.9959 117.198 30.9635 117.094 30.9245L116.212 30.5872H116.147L115.193 31.1257L115.199 31.7421H115.206Z" fill="#F26F21"/>
</svg>
