<svg width="185" height="80" viewBox="0 0 185 80" fill="none" xmlns="http://www.w3.org/2000/svg">
<rect x="0.5" y="0.5" width="184" height="79" rx="3.5" stroke="#C5C5C5" stroke-opacity="0.76"/>
<path d="M66.5663 42.8331H64.1331V36.5226H66.5663C68.3782 36.5226 69.8542 37.9383 69.8542 39.6796C69.8542 41.4179 68.3782 42.8331 66.5663 42.8331ZM74.6715 37.5215C73.6854 34.111 70.4299 31.595 66.5663 31.595H59V47.7613H66.5663C68.4866 47.7613 70.2509 47.1341 71.67 46.0916C71.5053 45.4723 71.4087 44.8284 71.4087 44.1601V43.7761C71.4087 41.2198 72.6939 38.9553 74.6715 37.5215Z" fill="#5EA8E0"/>
<path d="M74.9849 39.6796C74.9849 38.9308 74.8702 38.209 74.6716 37.5215C72.6949 38.9553 71.4087 41.2198 71.4087 43.7756V44.1595C71.4087 44.8279 71.5053 45.4727 71.6691 46.0926C73.6815 44.6141 74.9849 42.2927 74.9849 39.6796Z" fill="#2D71C1"/>
<path d="M82.6125 44.1605C82.6125 45.7665 81.2498 47.0728 79.5767 47.0728C77.9031 47.0728 76.5413 45.7665 76.5413 44.1605V43.7761C76.5413 42.1711 77.9031 40.8638 79.5767 40.8638C81.2498 40.8638 82.6125 42.1711 82.6125 43.7761V44.1605ZM82.3561 36.4089C82.306 36.3912 82.2575 36.3726 82.205 36.3559C82.1908 36.3515 82.1751 36.3471 82.1624 36.3417C82.1256 36.3299 82.0893 36.3172 82.053 36.3064C81.2704 36.0666 80.4402 35.9352 79.5767 35.9352C77.7354 35.9352 76.0397 36.5315 74.672 37.5215C74.8711 38.209 74.9849 38.9318 74.9849 39.6796C74.9849 42.2927 73.6815 44.6141 71.6705 46.0921C72.5699 49.482 75.7685 52 79.5767 52C81.3626 52 83.0107 51.4415 84.3562 50.5039C85.1261 51.1718 86.2123 51.6033 87.7452 51.824V44.3199V44.1605V43.9443V43.7761C87.7452 43.6761 87.7324 43.58 87.729 43.4819C87.729 43.4706 87.7282 43.4598 87.727 43.45V43.4372C87.727 43.4211 87.7235 43.4053 87.7231 43.3907C84.6377 42.4354 82.3909 39.6752 82.3561 36.4089" fill="#A6D71C"/>
<path d="M97.7073 33.2465C97.7093 33.2461 97.7109 33.2438 97.7128 33.243C97.7151 33.2406 97.7171 33.2391 97.7206 33.2371C97.7545 33.213 97.7888 33.189 97.8206 33.164V28H92.6895V36.3328C92.6895 37.7107 91.5219 38.8287 90.0881 38.8287C88.6528 38.8287 87.4877 37.7107 87.4877 36.3328V28H82.3546V36.3328V36.3416V36.3563C82.3546 36.374 82.3553 36.3911 82.3553 36.4083C85.3726 37.4611 87.5591 40.1718 87.7234 43.3901C87.7753 43.4058 87.8244 43.4215 87.8759 43.4367C87.8901 43.4416 87.9058 43.4445 87.9215 43.4499C87.9573 43.4607 87.9921 43.4719 88.0303 43.4813C88.6859 43.6549 89.3749 43.7568 90.0879 43.7568C91.8537 43.7568 93.4807 43.1782 94.7836 42.2161C94.8356 42.1789 94.8846 42.1382 94.9366 42.0984V38.6178C94.9366 36.4318 96.0247 34.487 97.7072 33.2464" fill="#FAB812"/>
<path d="M111.005 31.8392C109.295 31.8392 107.724 32.4286 106.501 33.403C105.277 32.4286 103.708 31.8392 101.998 31.8392C100.497 31.8392 99.1083 32.2953 97.9633 33.0622C97.9153 33.096 97.8692 33.1308 97.8202 33.1642V36.3319C97.8202 38.6156 96.7355 40.6555 95.0413 42.0167C95.0405 42.0183 95.0393 42.0183 95.0368 42.0191C95.0045 42.0456 94.9706 42.072 94.9363 42.0985V47.7622H100.053V38.6179C100.053 37.5886 100.925 36.754 101.998 36.754C103.069 36.754 103.943 37.5886 103.943 38.6179V47.7622H109.059V38.6179C109.059 37.5886 109.931 36.754 111.005 36.754C112.076 36.754 112.949 37.5886 112.949 38.6179V47.7622H118.064V38.6179C118.064 34.8813 114.898 31.8391 111.005 31.8391" fill="#F46855"/>
<path d="M95.0418 42.0167C96.7355 40.6555 97.8212 38.6156 97.8212 36.3324V33.1652C97.7888 33.1897 97.7535 33.2122 97.7211 33.2368C97.7167 33.2387 97.7148 33.2407 97.7123 33.2436C97.7103 33.2436 97.7088 33.2464 97.7074 33.2475C96.0254 34.4872 94.9363 36.4325 94.9363 38.619V42.0986C94.9702 42.0721 95.004 42.0466 95.0364 42.0192C95.0391 42.0184 95.0403 42.0184 95.0418 42.0168" fill="#EA3A1E"/>
<path d="M82.3556 36.4088C82.3909 39.6751 84.6377 42.4354 87.7226 43.3906C87.5588 40.1724 85.3733 37.4611 82.3556 36.4088Z" fill="#609F20"/>
</svg>
