<svg width="25" height="25" viewBox="0 0 25 25" fill="none" xmlns="http://www.w3.org/2000/svg">
<path d="M23.625 0H1.375C1.01033 0 0.660591 0.144866 0.402728 0.402728C0.144866 0.660591 0 1.01033 0 1.375V23.625C0 23.8056 0.0355655 23.9844 0.104666 24.1512C0.173766 24.318 0.275048 24.4696 0.402728 24.5973C0.530409 24.725 0.681988 24.8262 0.84881 24.8953C1.01563 24.9644 1.19443 25 1.375 25H13.35V15.3125H10.1V11.5625H13.35V8.75C13.2827 8.0897 13.3606 7.42266 13.5784 6.79567C13.7962 6.16868 14.1485 5.59693 14.6106 5.12051C15.0727 4.6441 15.6335 4.27455 16.2535 4.0378C16.8736 3.80104 17.538 3.70281 18.2 3.75C19.1729 3.74401 20.1454 3.7941 21.1125 3.9V7.275H19.125C17.55 7.275 17.25 8.025 17.25 9.1125V11.525H21L20.5125 15.275H17.25V25H23.625C23.8056 25 23.9844 24.9644 24.1512 24.8953C24.318 24.8262 24.4696 24.725 24.5973 24.5973C24.725 24.4696 24.8262 24.318 24.8953 24.1512C24.9644 23.9844 25 23.8056 25 23.625V1.375C25 1.19443 24.9644 1.01563 24.8953 0.84881C24.8262 0.681988 24.725 0.530409 24.5973 0.402728C24.4696 0.275048 24.318 0.173766 24.1512 0.104666C23.9844 0.0355655 23.8056 0 23.625 0Z" fill="white"/>
</svg>
