<svg width="185" height="80" viewBox="0 0 185 80" fill="none" xmlns="http://www.w3.org/2000/svg">
<rect x="0.5" y="0.5" width="184" height="79" rx="3.5" stroke="#C5C5C5" stroke-opacity="0.76"/>
<path d="M56.0248 29H59.4945V36.8685H62.0175V29.0175H65.2406V52.8759H62.0376V40.6237H59.5408V52.8809H56.0248V29Z" fill="#40BFB8"/>
<path d="M46.3545 35.585H50.1998V31.3278H53.637V47.97H43V31.3315H46.3545V35.585ZM46.3795 39.4254V44.4665H50.1886V39.4254H46.3795Z" fill="#40BFB8"/>
<path d="M69.4778 52.9535V46.5839H82.4062V45.303H69.4791V43.024H86.3116V49.0982H73.0389V50.3741H86.3166V52.9535H69.4778Z" fill="#40BFB8"/>
<path d="M107.237 30.5902H119.157V42.2001H107.237V30.5902ZM115.752 33.9034H110.646V38.9608H115.753L115.752 33.9034Z" fill="#40BFB8"/>
<path d="M141.124 32.5899C142.274 34.2176 143.754 35.1868 145.468 35.8379C145.851 35.9832 146.241 36.1146 146.635 36.2248C146.858 36.2874 146.959 36.3738 146.95 36.628C146.929 37.2341 146.944 37.8401 146.944 38.4461C145.091 38.4749 140.898 37.4256 138.192 34.3679C135.768 36.8321 132.696 38.0292 129.388 38.9007C129.388 38.108 129.374 37.3881 129.402 36.6706C129.402 36.5617 129.579 36.4089 129.706 36.3651C131.299 35.8104 132.771 35.0441 134.023 33.9033C134.409 33.5515 134.717 33.1158 135.06 32.7176L134.972 32.6011H129.285V29.7212H147.066V32.5949L141.124 32.5899Z" fill="#40BFB8"/>
<path d="M79.6427 30.5452V33.7732H71.4362V38.3786H80.2262V41.2911H67.8613V30.5452H79.6427Z" fill="#40BFB8"/>
<path d="M104.466 52.5742H101.549V49.2009C98.9546 51.1342 95.9632 51.4823 92.9518 51.7227C92.0828 51.7928 91.1988 51.734 90.2997 51.734V49.1045C90.5301 49.1045 90.7518 49.1045 90.9734 49.1045C94.4669 49.2222 97.8439 48.6111 101.146 47.5067C101.423 47.4141 101.506 47.2838 101.505 46.9946C101.494 43.7966 101.498 40.5974 101.498 37.3994V36.8986H104.466V52.5742Z" fill="#40BFB8"/>
<path d="M129.16 44.757H147.151C147.167 44.8366 147.178 44.9174 147.182 44.9986C147.146 46.5538 147.208 48.119 147.036 49.6578C146.919 50.6909 146.48 51.6901 146.159 52.6943C146.124 52.7691 146.072 52.8344 146.006 52.885C145.941 52.9355 145.865 52.9697 145.783 52.9848C144.724 53.0086 143.664 52.9973 142.528 52.9973C143.279 51.4159 143.735 49.8031 143.706 48.0301H129.16V44.757Z" fill="#40BFB8"/>
<path d="M148.385 39.9136V43.1392H127.975V39.9487H136.24V37.5145H140.121V39.9099L148.385 39.9136Z" fill="#40BFB8"/>
<path d="M112.837 49.5827H126.155V52.9635H109.334V44.9911H112.84L112.837 49.5827Z" fill="#40BFB8"/>
<path d="M122.262 29.1252H125.879V44.4302H122.262V29.1252Z" fill="#40BFB8"/>
<path d="M86.4431 42.0335C86.2665 42.0435 86.1563 42.0548 86.0462 42.0548H82.887V29.1139H86.4306V34.0511H88.9762V37.6397H86.4431V42.0335Z" fill="#40BFB8"/>
<path d="M90.907 42.0097C90.9383 41.3336 90.907 40.6474 91.0147 39.9825C91.1141 39.3908 91.414 38.8512 91.864 38.4543C92.3141 38.0574 92.8869 37.8273 93.4864 37.8025C94.5457 37.76 95.6088 37.7587 96.6668 37.8025C98.0655 37.8601 99.0947 38.9545 99.1498 40.432C99.1874 41.4488 99.1887 42.4693 99.1498 43.4848C99.0885 44.9648 98.1068 45.9703 96.623 46.0504C95.5804 46.1072 94.5355 46.1097 93.4927 46.0579C91.9713 45.9803 90.9471 44.8471 90.9458 43.3308C90.9458 42.8925 90.9458 42.4543 90.9458 42.016L90.907 42.0097ZM96.7019 41.9321C96.7019 41.6491 96.7094 41.3661 96.7019 41.0832C96.7064 40.7893 96.5959 40.5054 96.3941 40.2918C96.1922 40.0783 95.9149 39.952 95.6213 39.94C95.2681 39.918 94.9139 39.918 94.5607 39.94C93.8633 39.9875 93.4 40.4972 93.3962 41.1921C93.3962 41.693 93.3962 42.1825 93.3962 42.6784C93.3962 43.3833 93.8683 43.8829 94.5708 43.9218C94.9088 43.9405 95.2507 43.938 95.5887 43.9218C96.2461 43.893 96.6844 43.4372 96.7019 42.7723C96.7094 42.4981 96.7019 42.2151 96.7019 41.9321Z" fill="#40BFB8"/>
</svg>
