<svg width="185" height="80" viewBox="0 0 185 80" fill="none" xmlns="http://www.w3.org/2000/svg">
<rect x="0.5" y="0.5" width="184" height="79" rx="3.5" stroke="#C5C5C5" stroke-opacity="0.76"/>
<ellipse cx="42.3114" cy="34.7545" rx="4.31138" ry="4.31138" fill="#4876EF"/>
<ellipse cx="42.3114" cy="47.6886" rx="4.31138" ry="4.31138" fill="#B4C0D3"/>
<ellipse cx="55.2455" cy="34.7545" rx="4.31138" ry="4.31138" fill="#B4C0D3"/>
<ellipse cx="55.2455" cy="47.6886" rx="4.31138" ry="4.31138" fill="#00D3AB"/>
<path d="M140.36 28C140.905 28.1362 141.394 28.4403 141.757 28.8692C142.043 29.2502 142.206 29.7091 142.225 30.185C142.244 30.6608 142.117 31.1311 141.863 31.5335C141.608 31.9359 141.237 32.2513 140.799 32.4379C140.36 32.6245 139.876 32.6734 139.409 32.5781C138.935 32.4795 138.506 32.2317 138.183 31.8711C137.86 31.5105 137.661 31.056 137.615 30.5742C137.484 29.3304 138.135 28.3885 139.359 28.0587C139.387 28.0445 139.413 28.0256 139.434 28.0028L140.36 28Z" fill="#4876EE"/>
<path d="M117.544 42.8608C117.544 41.3655 117.544 39.8674 117.544 38.3693C117.526 38.112 117.579 37.8547 117.698 37.6258C117.817 37.3969 117.997 37.2054 118.218 37.0724C120.314 35.7197 122.544 35.2781 124.948 36.111C125.424 36.2886 125.851 36.5759 126.195 36.9495C126.351 37.1116 126.443 37.12 126.631 36.9858C128.403 35.6945 130.376 35.4234 132.461 35.9489C134.253 36.3988 135.197 37.6566 135.535 39.4202C135.63 39.9252 135.678 40.438 135.678 40.9518C135.678 43.1543 135.678 45.3567 135.678 47.5591C135.69 47.9561 135.556 48.3438 135.301 48.6481C135.046 48.9524 134.687 49.152 134.294 49.2087C133.901 49.2654 133.501 49.1753 133.17 48.9555C132.839 48.7358 132.6 48.4018 132.5 48.0175C132.457 47.8449 132.44 47.6669 132.45 47.4892C132.45 45.4545 132.45 43.4198 132.45 41.3851C132.458 40.9932 132.413 40.602 132.316 40.2223C132.225 39.8502 132.016 39.5174 131.72 39.2736C131.424 39.0298 131.058 38.8881 130.675 38.8696C129.925 38.7909 129.169 38.9441 128.509 39.3084C128.417 39.3469 128.341 39.414 128.29 39.4996C128.24 39.5852 128.219 39.6848 128.229 39.7836C128.229 42.3326 128.229 44.8816 128.229 47.4306C128.229 48.1209 128.003 48.6799 127.374 49.0209C127.127 49.1531 126.85 49.2188 126.569 49.2115C126.289 49.2043 126.015 49.1243 125.775 48.9795C125.535 48.8346 125.337 48.6299 125.2 48.3853C125.062 48.1407 124.991 47.8647 124.993 47.5843C124.993 45.4713 124.993 43.3583 124.993 41.2453C124.997 40.8986 124.955 40.5528 124.87 40.2168C124.798 39.8741 124.62 39.5627 124.362 39.3261C124.104 39.0895 123.778 38.9396 123.43 38.8975C122.608 38.7539 121.762 38.9032 121.038 39.3196C120.954 39.3592 120.884 39.4241 120.838 39.5053C120.793 39.5864 120.774 39.6798 120.784 39.7724C120.784 42.3661 120.784 44.9598 120.784 47.5535C120.795 47.8148 120.743 48.0748 120.63 48.3109C120.518 48.5471 120.349 48.7521 120.14 48.9079C119.93 49.0638 119.685 49.1658 119.426 49.205C119.168 49.2442 118.903 49.2193 118.657 49.1327C118.321 49.0143 118.032 48.7924 117.831 48.499C117.63 48.2056 117.528 47.8559 117.539 47.5004C117.539 45.9464 117.544 44.4036 117.544 42.8608Z" fill="#4876EE"/>
<path d="M144.127 42.8524C144.127 41.3208 144.127 39.7779 144.127 38.2603C144.113 37.9975 144.174 37.736 144.302 37.5061C144.43 37.2762 144.62 37.0871 144.851 36.9606C145.932 36.3265 147.137 35.931 148.384 35.8007C149.592 35.6208 150.823 35.6586 152.017 35.9125C154.147 36.4156 155.475 37.9556 155.651 40.1329C155.763 41.4046 155.69 42.6791 155.704 43.9508C155.718 45.1247 155.704 46.2986 155.704 47.4725C155.704 48.4814 155.036 49.1942 154.094 49.197C153.87 49.1999 153.647 49.1569 153.44 49.0706C153.233 48.9844 153.046 48.8567 152.891 48.6954C152.735 48.5342 152.614 48.3427 152.535 48.1329C152.456 47.923 152.42 47.6992 152.431 47.4753C152.431 45.3958 152.431 43.3164 152.431 41.2369C152.431 39.8394 151.593 38.9534 150.195 38.8556C149.356 38.8005 148.516 38.9421 147.741 39.2693C147.624 39.3031 147.522 39.3784 147.456 39.4812C147.39 39.5839 147.363 39.7072 147.381 39.8283C147.381 42.3745 147.381 44.9235 147.381 47.4725C147.381 48.5038 146.721 49.2081 145.751 49.2053C144.781 49.2026 144.116 48.4619 144.116 47.4557C144.124 45.9157 144.127 44.384 144.127 42.8524Z" fill="#4876EE"/>
<path d="M73.7026 35.6946C75.3795 35.7141 76.5394 35.893 77.6351 36.3905C78.1074 36.6029 78.563 36.8545 78.781 37.366C78.9019 37.6274 78.9447 37.9182 78.904 38.2034C78.8633 38.4886 78.741 38.7559 78.5518 38.9731C78.3768 39.179 78.1477 39.332 77.8905 39.415C77.6333 39.4979 77.358 39.5075 77.0956 39.4426C76.8223 39.3827 76.5575 39.2888 76.3075 39.1631C75.4099 38.7258 74.4075 38.5496 73.4147 38.6544C73.0553 38.6815 72.7143 38.8236 72.442 39.0597C72.331 39.1548 72.2439 39.2748 72.188 39.4099C72.1322 39.545 72.109 39.6914 72.1204 39.8372C72.1319 39.983 72.1776 40.124 72.2539 40.2487C72.3302 40.3735 72.4349 40.4784 72.5594 40.555C73.0235 40.8252 73.5364 41.0009 74.0687 41.0721C74.9367 41.2219 75.7945 41.4254 76.6373 41.6814C77.3776 41.9181 78.0491 42.3315 78.5937 42.886C79.7369 44.1074 79.639 46.4608 78.5574 47.7884C77.7388 48.7709 76.5636 49.3881 75.2901 49.5045C73.5795 49.7464 71.8353 49.4994 70.2592 48.7918C69.8498 48.6149 69.4722 48.3722 69.1412 48.0735C68.9133 47.8793 68.7483 47.6218 68.6672 47.3336C68.5861 47.0455 68.5925 46.7397 68.6856 46.4552C68.7591 46.1888 68.9118 45.951 69.1234 45.7733C69.335 45.5957 69.5956 45.4865 69.8707 45.4602C70.2746 45.4261 70.6779 45.5338 71.011 45.7648C72.2166 46.468 73.6202 46.7548 75.005 46.5809C75.2727 46.5512 75.531 46.4645 75.7624 46.3266C75.9177 46.241 76.0479 46.1161 76.1399 45.9645C76.2319 45.8128 76.2826 45.6397 76.2868 45.4624C76.291 45.2851 76.2487 45.1098 76.1641 44.9539C76.0794 44.7981 75.9554 44.6671 75.8044 44.5742C75.2897 44.2746 74.7189 44.0843 74.1274 44.0152C73.1543 43.8732 72.2042 43.6035 71.3017 43.213C70.1362 42.654 69.2334 41.8379 69.0434 40.4991C68.7778 38.6377 69.5381 37.0865 71.3073 36.248C72.0583 35.8983 72.8742 35.7098 73.7026 35.6946Z" fill="#4876EE"/>
<path d="M94.8129 43.5651V39.9093C94.8129 37.4721 96.0594 36.0243 98.4743 35.742C99.4755 35.6169 100.491 35.6776 101.47 35.9209C102.113 36.0886 102.658 36.4184 102.868 37.106C103.192 38.2239 102.253 39.2301 101.06 39.0373C100.618 38.9408 100.171 38.8726 99.7208 38.8332C98.6224 38.7997 98.0998 39.286 98.0914 40.39C98.0914 41.7875 98.0914 43.185 98.0914 44.5825C98.0914 45.5747 98.0914 46.5697 98.0914 47.5647C98.0957 47.932 97.9737 48.2896 97.7457 48.5776C97.5178 48.8656 97.1977 49.0665 96.8392 49.1467C96.4914 49.2426 96.1215 49.2199 95.788 49.0823C95.4545 48.9446 95.1763 48.6998 94.9974 48.3864C94.8697 48.1497 94.8061 47.8838 94.8129 47.615C94.8157 46.2706 94.8129 44.9179 94.8129 43.5651Z" fill="#4876EE"/>
<path d="M141.441 40.1414C141.441 41.6059 141.455 43.0677 141.441 44.5323C141.449 44.7795 141.398 45.025 141.29 45.2479C141.183 45.4707 141.024 45.6644 140.826 45.8124C140.627 45.9603 140.396 46.0582 140.152 46.0976C139.908 46.137 139.658 46.1168 139.423 46.0388C139.112 45.9246 138.842 45.7182 138.651 45.447C138.46 45.1759 138.356 44.8529 138.353 44.5211C138.353 41.592 138.353 38.6638 138.353 35.7365C138.335 35.5236 138.361 35.3093 138.43 35.1071C138.499 34.9049 138.609 34.7192 138.754 34.5618C138.898 34.4044 139.074 34.2788 139.269 34.1928C139.465 34.1069 139.676 34.0625 139.89 34.0625C140.104 34.0625 140.315 34.1069 140.511 34.1928C140.706 34.2788 140.882 34.4044 141.026 34.5618C141.171 34.7192 141.281 34.9049 141.35 35.1071C141.419 35.3093 141.445 35.5236 141.427 35.7365C141.45 37.2123 141.441 38.6768 141.441 40.1414Z" fill="#4876EE"/>
<path fill-rule="evenodd" clip-rule="evenodd" d="M114.858 46.7458V43.3052C114.842 42.9157 114.85 42.4906 114.86 42.044C114.875 41.3018 114.892 40.5 114.794 39.7025C114.582 37.9529 113.712 36.6728 111.999 36.1138C109.816 35.4095 107.639 35.6079 105.495 36.3625C105.255 36.457 105.041 36.6086 104.872 36.8041C104.299 37.4162 104.366 38.8584 105.607 39.0932C106.039 39.1553 106.48 39.1102 106.89 38.9619C107.849 38.654 108.859 38.5316 109.864 38.6013C110.971 38.6907 111.588 39.2302 111.697 40.2392C111.705 40.3524 111.704 40.4589 111.704 40.5686C111.703 40.6946 111.702 40.8248 111.714 40.9742C111.736 41.2537 111.667 41.3236 111.387 41.2537C109.998 40.8915 108.546 40.8362 107.133 41.0916C105.856 41.3348 104.766 41.8882 104.115 43.09C103.103 44.957 103.667 48.0595 106.795 48.9343C109.31 49.515 111.951 49.1488 114.213 47.9057C114.42 47.7942 114.591 47.6256 114.705 47.4201C114.819 47.2146 114.873 46.9806 114.858 46.7458ZM111.717 45.5412V44.7027V43.7385C111.717 43.7347 111.717 43.7309 111.717 43.7271C111.717 43.6201 111.717 43.5274 111.569 43.4869C110.532 43.2046 109.481 42.9922 108.402 43.1879C108.129 43.2191 107.866 43.3106 107.633 43.4556C107.4 43.6005 107.201 43.7955 107.052 44.0264C106.49 44.9571 107.007 46.1002 108.153 46.3797C109.267 46.6574 110.445 46.5172 111.463 45.9856C111.55 45.953 111.624 45.8907 111.67 45.8095C111.717 45.7283 111.733 45.6333 111.717 45.5412Z" fill="#4876EE"/>
<path fill-rule="evenodd" clip-rule="evenodd" d="M92.1264 44.5486C92.128 44.1409 92.1297 43.7132 92.1297 43.2549C92.112 42.8742 92.12 42.4576 92.1283 42.0195C92.1424 41.2837 92.1576 40.487 92.0543 39.6969C91.8279 37.8802 90.8692 36.6057 89.1 36.0635C87.3308 35.5213 85.556 35.647 83.7896 36.0383C83.3044 36.1222 82.8396 36.2977 82.42 36.5554C82.1564 36.729 81.957 36.9844 81.8525 37.2823C81.748 37.5802 81.7441 37.9041 81.8415 38.2044C81.9281 38.4909 82.1093 38.7395 82.3556 38.9096C82.6018 39.0796 82.8985 39.1611 83.197 39.1407C83.5313 39.1316 83.8621 39.0713 84.1781 38.9619C85.1174 38.6638 86.1043 38.5443 87.0876 38.6097C88.1497 38.6907 88.7534 39.1659 88.9295 40.0882C88.9639 40.4439 88.9733 40.8017 88.9574 41.1587C88.963 41.3236 88.8624 41.3068 88.759 41.2845C88.668 41.2653 88.5773 41.2446 88.4866 41.2239C88.3267 41.1874 88.1667 41.1509 88.0044 41.1224C86.4671 40.8596 84.9355 40.8233 83.443 41.3599C82.6851 41.6089 82.0293 42.0985 81.5753 42.7544C81.1212 43.4102 80.8938 44.1964 80.9275 44.9934C80.9527 46.8967 82.1517 48.3976 84.0691 48.9315C86.5635 49.5007 89.1798 49.1441 91.431 47.9281C91.6549 47.8124 91.8403 47.6339 91.9643 47.4145C92.0884 47.1951 92.1459 46.9443 92.1297 46.6927C92.1206 46.0012 92.1234 45.3096 92.1264 44.5486ZM88.977 45.3875C88.9602 45.1539 88.9602 44.9195 88.977 44.6859C88.977 44.3694 88.9743 44.0555 88.9716 43.7339L88.9714 43.7105C88.9742 43.5903 88.9602 43.5064 88.8149 43.4673C87.7863 43.185 86.7494 42.9866 85.6789 43.1627C84.8963 43.2912 84.273 43.8111 84.1417 44.426C83.946 45.3371 84.4323 46.1169 85.391 46.3629C86.438 46.6255 87.5429 46.527 88.527 46.0834C88.8484 45.9464 89.0356 45.7704 88.977 45.3875Z" fill="#4876EE"/>
</svg>
