<svg width="185" height="80" viewBox="0 0 185 80" fill="none" xmlns="http://www.w3.org/2000/svg">
<rect x="0.5" y="0.5" width="184" height="79" rx="3.5" stroke="#C5C5C5" stroke-opacity="0.76"/>
<path d="M102.629 43.3676C103.143 42.554 103.512 41.5744 103.704 40.5124C103.965 39.2526 104.096 37.9451 104.094 36.6311C104.094 33.8279 103.517 30.6827 101.782 28.6603C100.743 27.6005 99.5394 26.9168 98.2753 26.6676C96.3114 26.1819 94.3199 25.9603 92.3271 26.0058C91.4076 26.0058 90.4154 26.043 89.3453 26.1173C87.7766 26.169 86.2133 26.3977 84.6698 26.8014C83.4734 27.1182 82.3371 27.7921 81.3347 28.7792C80.5425 29.6672 79.9367 30.8507 79.584 32.1995C79.2005 33.6229 79.0033 35.1352 79.0022 36.6608C78.9676 38.5913 79.3425 40.4916 80.0775 42.111C80.604 43.2029 81.2796 44.1308 82.0635 44.8388C82.8475 45.5468 83.7235 46.0201 84.6387 46.2302C86.5244 46.773 88.7946 46.7656 91.7245 46.7953H92.3895C96.3376 46.8251 98.5143 46.4384 99.9741 45.7915C100.999 45.3531 101.919 44.5136 102.629 43.3676ZM101.486 41.7764C100.963 42.668 100.264 43.3132 99.4805 43.6278C98.3169 44.1483 96.2337 44.5498 92.4051 44.535H91.7557C88.805 44.535 86.6024 44.535 85.0023 44.0219C84.2867 43.8739 83.6006 43.5138 82.9879 42.9645C82.3751 42.4152 81.8492 41.6889 81.4438 40.8321C80.8897 39.5945 80.6125 38.1446 80.649 36.6757C80.6432 35.4268 80.8037 34.1878 81.1217 33.0249C81.3566 32.0831 81.7682 31.2522 82.3114 30.6232C83.1278 29.8098 84.0587 29.2617 85.0387 29.0172C86.4907 28.6495 87.9596 28.4358 89.4336 28.3777C90.4726 28.3034 91.4492 28.2736 92.3427 28.2736C94.2259 28.2292 96.1078 28.4383 97.9636 28.8982C98.9639 29.0826 99.9215 29.5912 100.764 30.3853C101.984 31.798 102.494 34.2294 102.494 36.6162C102.5 37.7084 102.393 38.7958 102.177 39.8432C102.048 40.5521 101.812 41.212 101.486 41.7764ZM103.133 46.6317C103.127 47.2924 103.26 47.9404 103.512 48.4932C103.765 49.046 104.127 49.4787 104.552 49.7364C104.977 49.994 105.446 50.0648 105.9 49.9399C106.353 49.815 106.77 49.5 107.098 49.0349C107.426 48.5698 107.65 47.9757 107.741 47.328C107.832 46.6804 107.787 46.0085 107.611 45.3977C107.435 44.787 107.136 44.2651 106.752 43.8983C106.368 43.5315 105.916 43.3364 105.455 43.3378C105.151 43.3359 104.85 43.4195 104.569 43.584C104.288 43.7485 104.033 43.9906 103.817 44.2964C103.601 44.6023 103.43 44.966 103.312 45.3667C103.195 45.7674 103.134 46.1972 103.133 46.6317ZM105.455 45.2562C105.646 45.2577 105.832 45.3402 105.991 45.4934C106.149 45.6466 106.272 45.8635 106.344 46.1168C106.416 46.3701 106.434 46.6483 106.396 46.9163C106.358 47.1842 106.265 47.43 106.129 47.6223C105.993 47.8147 105.821 47.9451 105.633 47.997C105.445 48.0489 105.251 48.0201 105.075 47.914C104.899 47.808 104.749 47.6296 104.643 47.4013C104.538 47.1731 104.482 46.9053 104.483 46.6317C104.486 46.2656 104.59 45.9157 104.771 45.6582C104.953 45.4006 105.199 45.2562 105.455 45.2562Z" fill="#21B3E8"/>
</svg>
