<svg width="185" height="80" viewBox="0 0 185 80" fill="none" xmlns="http://www.w3.org/2000/svg">
<rect x="0.5" y="0.5" width="184" height="79" rx="3.5" stroke="#C5C5C5" stroke-opacity="0.76"/>
<path d="M84.1711 26H80.4396C80.4396 26 79.7996 26.204 79.4796 26.9689C79.4796 26.9689 79 27.8871 79 28.8058C79 29.7235 79 49.9773 79 49.9773H82.252C82.252 49.9773 83.212 49.7733 83.2644 48.9573C83.3182 48.1408 83.2115 42.0693 83.2115 42.0693L89.8213 49.2631C89.8213 49.2631 90.3542 49.9253 91.048 49.9773C91.7409 50.0284 95.7386 49.9773 95.7386 49.9773L87.6893 40.8449L91.1009 36.8151H98.2977V45.8444C98.2977 45.8444 98.4884 50 102.403 50C106.362 50 106.774 50 106.774 50C106.774 50 107.68 49.6711 107.734 48.2426C107.787 46.8137 107.787 46.7133 107.787 46.7133L104.482 46.7124C104.482 46.7124 102.616 46.7631 102.616 45.0284C102.616 43.2937 102.669 36.8155 102.669 36.8155C102.669 36.8155 107.574 37.3764 107.787 34.8769V31.924C107.787 31.924 106.744 32.9511 103.793 32.9511L102.687 32.9351L102.703 27.72H99.2493C99.2493 27.72 98.4444 27.8 98.1928 28.6671V32.9667H91.0173C91.0173 32.9667 89.1391 32.8698 87.6978 34.5871C86.2555 36.3035 83.3213 39.7209 83.3213 39.7209L83.3382 28.7151C83.3382 28.7151 83.2431 27.088 84.1711 26Z" fill="#242424"/>
<path d="M107.787 31.8275V34.9906C107.787 34.9906 107.609 36.7248 104.411 36.9631H87.8137C87.8137 36.9631 86.0724 37.0315 84.6862 38.1533L87.8137 34.4124C87.8137 34.4124 89.1644 32.848 91.2257 32.848C93.2871 32.848 104.873 32.848 104.873 32.848C104.873 32.848 106.827 32.8822 107.787 31.8275Z" fill="#EC1C24"/>
</svg>
