<svg width="25" height="25" viewBox="0 0 25 25" fill="none" xmlns="http://www.w3.org/2000/svg">
<path d="M12.5 9.4C11.8869 9.4 11.2875 9.58181 10.7777 9.92244C10.2679 10.2631 9.8706 10.7472 9.63597 11.3137C9.40134 11.8801 9.33995 12.5034 9.45957 13.1048C9.57918 13.7061 9.87443 14.2585 10.308 14.692C10.7415 15.1256 11.2939 15.4208 11.8952 15.5404C12.4966 15.66 13.1199 15.5987 13.6863 15.364C14.2528 15.1294 14.7369 14.7321 15.0776 14.2223C15.4182 13.7125 15.6 13.1131 15.6 12.5C15.6 12.0929 15.5198 11.6898 15.364 11.3137C15.2082 10.9376 14.9799 10.5958 14.692 10.308C14.4042 10.0201 14.0624 9.79176 13.6863 9.63597C13.3102 9.48018 12.9071 9.4 12.5 9.4ZM24.9125 6.3375C24.9059 5.3722 24.7282 4.41571 24.3875 3.5125C24.1366 2.85157 23.7484 2.25137 23.2485 1.75148C22.7486 1.2516 22.1484 0.863397 21.4875 0.6125C20.5843 0.27183 19.6278 0.0940761 18.6625 0.0874999C17.05 -8.3819e-08 16.575 0 12.5 0C8.425 0 7.95 -8.3819e-08 6.3375 0.0874999C5.3722 0.0940761 4.41571 0.27183 3.5125 0.6125C2.85157 0.863397 2.25137 1.2516 1.75148 1.75148C1.2516 2.25137 0.863397 2.85157 0.6125 3.5125C0.27183 4.41571 0.0940761 5.3722 0.0874999 6.3375C-8.3819e-08 7.95 0 8.425 0 12.5C0 16.575 -8.3819e-08 17.05 0.0874999 18.6625C0.100955 19.6312 0.278468 20.5906 0.6125 21.5C0.862285 22.1579 1.25016 22.7546 1.75 23.25C2.24774 23.7529 2.84924 24.1411 3.5125 24.3875C4.41571 24.7282 5.3722 24.9059 6.3375 24.9125C7.95 25 8.425 25 12.5 25C16.575 25 17.05 25 18.6625 24.9125C19.6278 24.9059 20.5843 24.7282 21.4875 24.3875C22.1508 24.1411 22.7523 23.7529 23.25 23.25C23.7498 22.7546 24.1377 22.1579 24.3875 21.5C24.7278 20.5924 24.9056 19.6318 24.9125 18.6625C25 17.05 25 16.575 25 12.5C25 8.425 25 7.95 24.9125 6.3375ZM21.7375 16.3375C21.6974 17.1089 21.5328 17.8687 21.25 18.5875C21.0073 19.1871 20.6466 19.7318 20.1892 20.1892C19.7318 20.6466 19.1871 21.0073 18.5875 21.25C17.8619 21.517 17.0978 21.6647 16.325 21.6875C15.3375 21.6875 15.075 21.6875 12.5 21.6875C9.925 21.6875 9.6625 21.6875 8.675 21.6875C7.90216 21.6647 7.13811 21.517 6.4125 21.25C5.79263 21.0196 5.23285 20.6522 4.775 20.175C4.32208 19.7266 3.97231 19.1848 3.75 18.5875C3.48195 17.8626 3.33826 17.0977 3.325 16.325C3.325 15.3375 3.325 15.075 3.325 12.5C3.325 9.925 3.325 9.6625 3.325 8.675C3.33826 7.90228 3.48195 7.13736 3.75 6.4125C3.98035 5.79263 4.34784 5.23285 4.825 4.775C5.27542 4.32453 5.81658 3.97512 6.4125 3.75C7.13811 3.48301 7.90216 3.33526 8.675 3.3125C9.6625 3.3125 9.925 3.3125 12.5 3.3125C15.075 3.3125 15.3375 3.3125 16.325 3.3125C17.0978 3.33526 17.8619 3.48301 18.5875 3.75C19.2074 3.98035 19.7672 4.34784 20.225 4.825C20.6779 5.27344 21.0277 5.81517 21.25 6.4125C21.517 7.13811 21.6647 7.90216 21.6875 8.675C21.6875 9.6625 21.6875 9.925 21.6875 12.5C21.6875 15.075 21.775 15.3375 21.7375 16.325V16.3375ZM19.7375 7.0375C19.5887 6.63373 19.354 6.26705 19.0497 5.96277C18.7454 5.65848 18.3788 5.42383 17.975 5.275C17.4206 5.08283 16.8367 4.98974 16.25 5C15.275 5 15 5 12.5 5C10 5 9.725 5 8.75 5C8.16033 5.00576 7.57634 5.11579 7.025 5.325C6.62741 5.46707 6.26462 5.69214 5.96073 5.98525C5.65684 6.27836 5.41883 6.6328 5.2625 7.025C5.08097 7.58171 4.99229 8.16449 5 8.75C5 9.725 5 10 5 12.5C5 15 5 15.275 5 16.25C5.01239 16.839 5.12221 17.4219 5.325 17.975C5.47383 18.3788 5.70848 18.7454 6.01277 19.0497C6.31705 19.354 6.68373 19.5887 7.0875 19.7375C7.62083 19.9336 8.18207 20.0434 8.75 20.0625C9.725 20.0625 10 20.0625 12.5 20.0625C15 20.0625 15.275 20.0625 16.25 20.0625C16.8397 20.0567 17.4237 19.9467 17.975 19.7375C18.3788 19.5887 18.7454 19.354 19.0497 19.0497C19.354 18.7454 19.5887 18.3788 19.7375 17.975C19.9467 17.4237 20.0567 16.8397 20.0625 16.25C20.0625 15.275 20.0625 15 20.0625 12.5C20.0625 10 20.0625 9.725 20.0625 8.75C20.0629 8.15975 19.9526 7.57465 19.7375 7.025V7.0375ZM12.5 17.275C11.8735 17.275 11.2532 17.1514 10.6746 16.9113C10.0959 16.6712 9.57038 16.3192 9.12798 15.8757C8.68557 15.4321 8.33503 14.9056 8.09643 14.3264C7.85783 13.7471 7.73586 13.1265 7.7375 12.5C7.7375 11.5551 8.01787 10.6314 8.54311 9.84586C9.06835 9.06034 9.81484 8.44833 10.6881 8.08729C11.5613 7.72625 12.5221 7.63243 13.4487 7.81769C14.3753 8.00295 15.2261 8.45896 15.8934 9.12801C16.5607 9.79706 17.0144 10.649 17.1973 11.5761C17.3801 12.5032 17.2838 13.4637 16.9204 14.336C16.5571 15.2083 15.9431 15.9532 15.1562 16.4764C14.3694 16.9995 13.4449 17.2775 12.5 17.275ZM17.5 8.6625C17.2237 8.63325 16.968 8.50278 16.7821 8.29621C16.5963 8.08965 16.4934 7.82162 16.4934 7.54375C16.4934 7.26588 16.5963 6.99785 16.7821 6.79129C16.968 6.58472 17.2237 6.45425 17.5 6.425C17.7763 6.45425 18.032 6.58472 18.2179 6.79129C18.4037 6.99785 18.5066 7.26588 18.5066 7.54375C18.5066 7.82162 18.4037 8.08965 18.2179 8.29621C18.032 8.50278 17.7763 8.63325 17.5 8.6625Z" fill="white"/>
</svg>
