<svg width="185" height="80" viewBox="0 0 185 80" fill="none" xmlns="http://www.w3.org/2000/svg">
<rect x="0.5" y="0.5" width="184" height="79" rx="3.5" stroke="#C5C5C5" stroke-opacity="0.76"/>
<path fill-rule="evenodd" clip-rule="evenodd" d="M128.882 42.8413C128.882 41.0873 127.687 40.0497 126.224 40.0497C124.548 40.0497 123.511 41.2458 123.511 42.8945C123.469 44.3656 124.628 45.5938 126.1 45.634C126.141 45.636 126.183 45.636 126.224 45.635C127.687 45.635 128.883 44.5181 128.883 42.8413H128.882ZM133.112 49.2846L129.122 49.3187V47.4252C128.671 48.81 126.995 49.6729 125.373 49.6729C121.809 49.6729 119.096 47.1201 119.096 42.759C119.096 38.7452 121.915 35.8973 125.293 35.8973C127.101 35.8973 128.485 37.0362 128.883 38.0738V36.1472H133.112V49.2836V49.2846ZM118.108 44.788C118.108 47.7854 115.86 49.7653 111.951 49.7653C108.551 49.7653 106.945 48.533 106.089 46.6324C106.034 46.4448 106.034 46.2842 106.169 46.231L109.086 45.1072C109.181 45.077 109.285 45.1222 109.327 45.2135C109.623 46.0163 110.506 46.6585 111.496 46.6585C112.7 46.6585 113.236 46.1769 113.236 45.5868C113.236 44.8643 112.674 44.489 110.613 43.9813C108.069 43.339 106.302 42.4289 106.302 39.7526C106.302 36.9409 108.604 35.3615 112.326 35.3615C115.298 35.3615 117.065 36.4853 117.599 38.2514C117.627 38.412 117.627 38.5726 117.466 38.6277L114.494 39.6794C114.333 39.7597 114.308 39.7597 114.2 39.5991C113.744 38.8766 113.049 38.3949 112.166 38.3949C111.121 38.3949 110.666 38.7411 110.666 39.3302C110.666 39.867 111.283 40.1079 113.584 40.5895C116.262 41.1244 118.108 42.2703 118.108 44.788ZM100.394 42.8413C100.394 41.0873 99.1968 40.0497 97.7337 40.0497C96.0589 40.0497 95.0223 41.2458 95.0223 42.8945C94.9792 44.3656 96.1362 45.5918 97.6073 45.634C97.6494 45.636 97.6916 45.636 97.7337 45.635C99.1968 45.635 100.394 44.5181 100.394 42.8413ZM104.624 49.2846L100.633 49.3187V47.4252C100.181 48.81 98.5054 49.6729 96.8828 49.6729C93.3184 49.6729 90.6071 47.1201 90.6071 42.759C90.6071 38.7452 93.4268 35.8973 96.8045 35.8973C98.6118 35.8973 99.9945 37.0362 100.394 38.0738V36.1472H104.624V49.2836V49.2846Z" fill="black"/>
<path fill-rule="evenodd" clip-rule="evenodd" d="M86.1045 35.7869H85.9841L85.9178 35.8853L81.9612 41.4816L81.9712 32.5507V32.327H81.7474L77.4676 32.324H77.2438V32.5467L77.2288 49.1471V49.3709H77.4516L81.7314 49.3729L81.9551 49.3749V49.1511L81.9602 44.2482L85.386 49.2796L85.4522 49.3779H90.6191L90.3863 49.0297L86.1165 42.6557L90.7124 36.1402L90.9512 35.7919H90.5288L86.1035 35.7869H86.1045ZM53 30.4746L59.8186 28V48.9093L53 51.3809V30.4746ZM61.6941 43.8378L61.674 36.1462L69.5352 33.4729V41.2157L64.9794 42.739L69.5352 44.2773V52L61.6941 49.397V43.8378Z" fill="#1D6FF2"/>
</svg>
