<svg width="185" height="80" viewBox="0 0 185 80" fill="none" xmlns="http://www.w3.org/2000/svg">
<rect x="0.5" y="0.5" width="184" height="79" rx="3.5" stroke="#C5C5C5" stroke-opacity="0.76"/>
<path fill-rule="evenodd" clip-rule="evenodd" d="M155.413 32.1689C154.737 32.3692 154.096 32.6697 153.185 32.92C148.613 34.217 144.532 33.9215 139.945 33.0953C139.154 32.9551 137.972 32.7198 137.572 33.3908C137.071 34.197 137.887 35.1634 138.283 35.4739C139.925 36.7558 140.621 36.4753 142.99 36.27C145.994 35.9746 150.266 35.4789 153.005 34.4223C154.032 34.045 154.995 33.5112 155.859 32.8399C156.245 32.4744 155.999 31.9937 155.413 32.1689Z" fill="#29847B"/>
<path fill-rule="evenodd" clip-rule="evenodd" d="M145.955 36.6958C141.949 37.1264 142.55 42.7999 144.718 42.4093C145.69 42.234 145.299 41.1074 145.284 40.6316C145.244 39.0643 146.661 38.869 147.197 39.8254C147.848 40.9922 147.137 44.0818 146.801 45.3337C146.741 45.559 146.501 46.1699 146.631 46.3351C146.902 46.7207 147.372 46.1699 147.467 46.0697C148.97 44.4874 150.437 40.6316 149.24 38.4784C148.938 37.8831 148.462 37.3938 147.875 37.0754C147.289 36.7569 146.619 36.6246 145.955 36.6958Z" fill="#29847B"/>
<path fill-rule="evenodd" clip-rule="evenodd" d="M146.089 29.6053C145.877 29.6225 145.67 29.6828 145.483 29.7825C145.295 29.8823 145.129 30.0193 144.996 30.1853C144.863 30.3513 144.765 30.5428 144.709 30.7479C144.652 30.953 144.638 31.1675 144.668 31.3782C144.697 31.5889 144.769 31.7914 144.88 31.9732C144.99 32.1551 145.136 32.3125 145.31 32.4358C145.483 32.5591 145.68 32.6456 145.888 32.6902C146.096 32.7347 146.311 32.7363 146.519 32.6949C146.721 32.6645 146.915 32.5941 147.09 32.4878C147.264 32.3815 147.415 32.2415 147.535 32.0759C147.654 31.9103 147.739 31.7225 147.785 31.5235C147.831 31.3245 147.836 31.1184 147.801 30.9172C147.734 30.7436 147.652 30.5761 147.556 30.4165C147.426 30.111 147.736 29.2748 146.089 29.6053Z" fill="#FF0000"/>
<path d="M39.0933 48L32.1094 41.2792V48H29.7612V33.6273H32.1094V39.8217L37.8787 33.6273H40.8747L34.4778 40.51L42.2917 48H39.0933ZM50.8461 46.6842C49.8339 47.6964 48.5788 48.2024 47.0808 48.2024C45.5828 48.2024 44.321 47.6964 43.2953 46.6842C42.2832 45.6585 41.7771 44.4102 41.7771 42.9392C41.7771 41.4682 42.2832 40.2266 43.2953 39.2144C44.321 38.1888 45.5828 37.676 47.0808 37.676C48.5788 37.676 49.8339 38.1888 50.8461 39.2144C51.8717 40.2266 52.3845 41.4682 52.3845 42.9392C52.3845 44.4102 51.8717 45.6585 50.8461 46.6842ZM47.0808 46.1376C47.958 46.1376 48.68 45.834 49.2468 45.2267C49.8272 44.6059 50.1173 43.8434 50.1173 42.9392C50.1173 42.035 49.8272 41.2792 49.2468 40.672C48.68 40.0512 47.958 39.7408 47.0808 39.7408C46.1901 39.7408 45.4546 40.0512 44.8743 40.672C44.3075 41.2792 44.0241 42.035 44.0241 42.9392C44.0241 43.8434 44.3075 44.6059 44.8743 45.2267C45.4546 45.834 46.1901 46.1376 47.0808 46.1376ZM58.8192 48.1012C57.7935 48.1012 56.9568 47.8178 56.309 47.251C55.6748 46.6707 55.3576 45.834 55.3576 44.7408V39.8622H53.2523V37.8784H55.3576V35.0646H57.5844V37.8784H60.4791V39.8622H57.5844V44.3765C57.5844 44.9973 57.7193 45.4426 57.9892 45.7125C58.2591 45.9689 58.691 46.0971 59.2848 46.0971C59.7706 46.0971 60.1688 46.0297 60.4791 45.8947V47.8785C59.9933 48.027 59.44 48.1012 58.8192 48.1012ZM63.7043 35.6719C63.2994 35.6719 62.9486 35.5302 62.6517 35.2468C62.3548 34.9499 62.2063 34.5922 62.2063 34.1739C62.2063 33.769 62.3548 33.4249 62.6517 33.1415C62.9486 32.8446 63.2994 32.6961 63.7043 32.6961C64.1227 32.6961 64.4735 32.8446 64.757 33.1415C65.0404 33.4249 65.1821 33.769 65.1821 34.1739C65.1821 34.5922 65.0404 34.9499 64.757 35.2468C64.4735 35.5302 64.1227 35.6719 63.7043 35.6719ZM62.5909 48V37.8784H64.8177V48H62.5909ZM72.4253 48.2024C70.9004 48.2024 69.625 47.7031 68.5994 46.7044C67.5872 45.6923 67.0811 44.4372 67.0811 42.9392C67.0811 41.4412 67.5872 40.1929 68.5994 39.1942C69.625 38.182 70.9004 37.676 72.4253 37.676C73.4645 37.676 74.3957 37.9256 75.2189 38.425C76.0556 38.9243 76.6967 39.6058 77.142 40.4695L75.1987 41.5222C74.9422 40.9823 74.5711 40.5505 74.0853 40.2266C73.5994 39.9027 73.0461 39.7408 72.4253 39.7408C71.5346 39.7408 70.7991 40.0512 70.2188 40.672C69.6385 41.2792 69.3484 42.035 69.3484 42.9392C69.3484 43.8434 69.6385 44.6059 70.2188 45.2267C70.7991 45.834 71.5346 46.1376 72.4253 46.1376C73.0461 46.1376 73.5994 45.9757 74.0853 45.6518C74.5711 45.3279 74.9422 44.896 75.1987 44.3562L77.142 45.4089C76.6967 46.2726 76.0556 46.9541 75.2189 47.4534C74.3957 47.9528 73.4645 48.2024 72.4253 48.2024ZM87.5171 46.6842C86.505 47.6964 85.2499 48.2024 83.7519 48.2024C82.2539 48.2024 80.9921 47.6964 79.9664 46.6842C78.9543 45.6585 78.4482 44.4102 78.4482 42.9392C78.4482 41.4682 78.9543 40.2266 79.9664 39.2144C80.9921 38.1888 82.2539 37.676 83.7519 37.676C85.2499 37.676 86.505 38.1888 87.5171 39.2144C88.5428 40.2266 89.0556 41.4682 89.0556 42.9392C89.0556 44.4102 88.5428 45.6585 87.5171 46.6842ZM83.7519 46.1376C84.6291 46.1376 85.3511 45.834 85.9179 45.2267C86.4982 44.6059 86.7884 43.8434 86.7884 42.9392C86.7884 42.035 86.4982 41.2792 85.9179 40.672C85.3511 40.0512 84.6291 39.7408 83.7519 39.7408C82.8612 39.7408 82.1257 40.0512 81.5454 40.672C80.9786 41.2792 80.6952 42.035 80.6952 42.9392C80.6952 43.8434 80.9786 44.6059 81.5454 45.2267C82.1257 45.834 82.8612 46.1376 83.7519 46.1376ZM102.841 48.2429C100.776 48.2429 99.0217 47.5277 97.5777 46.0971C96.1337 44.6531 95.4117 42.892 95.4117 40.8137C95.4117 38.7354 96.1337 36.9809 97.5777 35.5504C99.0217 34.1064 100.776 33.3844 102.841 33.3844C104.231 33.3844 105.493 33.715 106.626 34.3763C107.76 35.0241 108.657 35.908 109.319 37.0282L107.274 38.2023C106.235 36.5153 104.757 35.6719 102.841 35.6719C101.424 35.6719 100.23 36.1712 99.2579 37.1699C98.2862 38.1685 97.8004 39.3831 97.8004 40.8137C97.8004 42.2442 98.2862 43.4588 99.2579 44.4574C100.23 45.4561 101.424 45.9554 102.841 45.9554C104.757 45.9554 106.235 45.112 107.274 43.425L109.319 44.5991C108.657 45.7193 107.76 46.61 106.626 47.2712C105.493 47.919 104.231 48.2429 102.841 48.2429ZM113.548 48H111.321V32.8176H113.548V39.2549C114.182 38.2023 115.208 37.676 116.625 37.676C117.799 37.676 118.737 38.0606 119.438 38.8298C120.14 39.5991 120.491 40.6247 120.491 41.9068V48H118.264V42.2712C118.264 41.4614 118.075 40.8339 117.698 40.3885C117.32 39.9297 116.807 39.7003 116.159 39.7003C115.39 39.7003 114.762 39.9904 114.276 40.5707C113.791 41.151 113.548 41.9675 113.548 43.0202V48ZM124.454 35.6719C124.049 35.6719 123.698 35.5302 123.401 35.2468C123.104 34.9499 122.956 34.5922 122.956 34.1739C122.956 33.769 123.104 33.4249 123.401 33.1415C123.698 32.8446 124.049 32.6961 124.454 32.6961C124.872 32.6961 125.223 32.8446 125.506 33.1415C125.79 33.4249 125.932 33.769 125.932 34.1739C125.932 34.5922 125.79 34.9499 125.506 35.2468C125.223 35.5302 124.872 35.6719 124.454 35.6719ZM123.34 48V37.8784H125.567V48H123.34ZM128.559 48V37.8784H130.786V39.2549C131.42 38.2023 132.446 37.676 133.863 37.676C135.037 37.676 135.975 38.0606 136.677 38.8298C137.379 39.5991 137.73 40.6247 137.73 41.9068V48H135.503V42.2712C135.503 41.4614 135.314 40.8339 134.936 40.3885C134.558 39.9297 134.045 39.7003 133.397 39.7003C132.628 39.7003 132.001 39.9904 131.515 40.5707C131.029 41.151 130.786 41.9675 130.786 43.0202V48H128.559ZM144.729 48.2024C143.352 48.2024 142.191 47.6896 141.247 46.6639C140.316 45.6383 139.85 44.3967 139.85 42.9392C139.85 41.4817 140.316 40.2401 141.247 39.2144C142.191 38.1888 143.352 37.676 144.729 37.676C145.417 37.676 146.051 37.8312 146.631 38.1415C147.212 38.4384 147.657 38.8028 147.968 39.2347V37.8784H150.194V48H147.968V46.6437C147.657 47.0756 147.212 47.4467 146.631 47.7571C146.051 48.054 145.417 48.2024 144.729 48.2024ZM142.967 45.2469C143.534 45.8677 144.256 46.1781 145.133 46.1781C146.011 46.1781 146.733 45.8677 147.299 45.2469C147.866 44.6261 148.15 43.8569 148.15 42.9392C148.15 42.0215 147.866 41.2523 147.299 40.6315C146.733 40.0107 146.011 39.7003 145.133 39.7003C144.256 39.7003 143.534 40.0107 142.967 40.6315C142.401 41.2523 142.117 42.0215 142.117 42.9392C142.117 43.8569 142.401 44.6261 142.967 45.2469Z" fill="black"/>
</svg>
