<svg width="185" height="80" viewBox="0 0 185 80" fill="none" xmlns="http://www.w3.org/2000/svg">
<rect x="0.5" y="0.5" width="184" height="79" rx="3.5" stroke="#C5C5C5" stroke-opacity="0.76"/>
<path d="M78 52C84.6274 52 90 46.6274 90 40C90 33.3726 84.6274 28 78 28C71.3726 28 66 33.3726 66 40C66 46.6274 71.3726 52 78 52Z" fill="#24E0A6"/>
<path d="M92.4 52C99.0274 52 104.4 46.6274 104.4 40C104.4 33.3726 99.0274 28 92.4 28C85.7726 28 80.4 33.3726 80.4 40C80.4 46.6274 85.7726 52 92.4 52Z" fill="#438BFF"/>
<path d="M106.8 52C113.427 52 118.8 46.6274 118.8 40C118.8 33.3726 113.427 28 106.8 28C100.173 28 94.8 33.3726 94.8 40C94.8 46.6274 100.173 52 106.8 52Z" fill="#438BFF"/>
<path fill-rule="evenodd" clip-rule="evenodd" d="M85.2 30.4C82.2853 32.5893 80.4 36.0749 80.4 40.0009C80.4 43.9269 82.2853 47.4125 85.2 49.6018C88.1147 47.4125 90 43.9269 90 40.0009C90 36.0749 88.1147 32.5893 85.2 30.4Z" fill="#3A68F9"/>
<path fill-rule="evenodd" clip-rule="evenodd" d="M99.6 30.4C96.6853 32.5893 94.8 36.0749 94.8 40.0009C94.8 43.9269 96.6853 47.4125 99.6 49.6018C102.515 47.4125 104.4 43.9269 104.4 40.0009C104.4 36.0749 102.515 32.5893 99.6 30.4Z" fill="#0049DB"/>
</svg>
