<svg width="185" height="80" viewBox="0 0 185 80" fill="none" xmlns="http://www.w3.org/2000/svg">
<rect x="0.5" y="0.5" width="184" height="79" rx="3.5" stroke="#C5C5C5" stroke-opacity="0.76"/>
<path d="M31.4863 46.3033C31.4863 46.022 31.416 45.7642 31.3222 45.5297C31.205 45.3187 30.9237 45.1546 30.4548 45.0843L26.0945 44.2638C25.3208 44.1231 24.6644 43.7715 24.1487 43.2558C23.633 42.7166 23.3751 41.9664 23.3751 40.9818V38.5672C23.3751 38.4968 23.3751 38.3327 23.3985 38.0983C23.422 37.8639 23.5157 37.6529 23.7267 37.4654L25.5318 35.5665C25.7194 35.3555 25.9304 35.2383 26.1414 35.2383C26.3523 35.2148 26.5164 35.2148 26.6337 35.2148H31.3691C31.416 35.2148 31.5801 35.2383 31.838 35.2383C32.0958 35.2617 32.3537 35.3321 32.5882 35.4962L34.8152 36.9496L34.909 37.0903L34.8621 37.2544L33.6196 39.2001L33.479 39.2939H33.3618L31.4629 38.2624L31.1581 38.1218L30.8534 38.0983H27.501L27.3369 38.1218L27.1728 38.2155L26.7274 38.6844L26.6102 38.9188V39.0595V40.6536C26.6102 40.9349 26.6805 41.1693 26.8446 41.3569C27.0087 41.521 27.3369 41.6616 27.7824 41.7554L32.1896 42.5994C32.9632 42.7635 33.5728 43.1151 34.0182 43.6308C34.4636 44.1466 34.698 44.9202 34.698 45.9282V48.6476C34.698 48.718 34.6746 48.8821 34.6746 49.1165C34.6511 49.3509 34.5339 49.5619 34.3464 49.7494L32.5413 51.6249C32.3537 51.8124 32.1427 51.9296 31.9317 51.9765C31.7208 52 31.5567 52 31.4394 52H26.493C26.4227 52 26.282 52 26.0241 51.9765C25.7663 51.9531 25.5084 51.8827 25.2505 51.6952L23.0938 50.359L23 50.2183L23.0469 50.0542L24.2659 47.9443L24.3831 47.8506H24.5003L26.3758 48.9524L26.6805 49.093L26.9619 49.0227H30.6189L30.783 48.9993L30.9471 48.9055L31.3457 48.4366L31.4629 48.2022V48.085" fill="#121741"/>
<path d="M37.5815 34.6757C37.5815 34.5351 37.6987 34.4179 37.9097 34.3475H40.418L40.6994 34.3944L40.8166 34.6523V40.1848C41.1213 39.9504 41.4495 39.7863 41.8949 39.6222C42.3169 39.4581 42.692 39.3878 43.0905 39.3878H45.2707C45.4817 39.3878 45.6927 39.4112 45.9037 39.4581C46.1147 39.505 46.2788 39.5519 46.3725 39.6222L48.1073 40.9115C48.2714 41.0288 48.3886 41.1929 48.459 41.4039C48.5293 41.6148 48.5762 41.8258 48.5762 42.0134V51.625C48.5762 51.8125 48.459 51.9063 48.2245 51.9063H45.7161C45.4817 51.9063 45.3645 51.8125 45.3645 51.625V43.1621C45.3645 42.9745 45.3176 42.8339 45.2238 42.7635L44.5674 42.3181C44.4737 42.2712 44.3565 42.2244 44.1689 42.2244H42.1763C41.9184 42.2244 41.6605 42.2712 41.4026 42.365C41.1213 42.4588 40.9338 42.5526 40.8166 42.6698V51.5781L40.6994 51.8359L40.418 51.8828H37.9097C37.6987 51.8359 37.5815 51.7187 37.5815 51.5546" fill="#121741"/>
<path d="M51.6004 34.6289C51.6004 34.4882 51.7176 34.371 51.9286 34.3007H55.0699L55.3747 34.3475L55.4919 34.6054V36.8559C55.4919 37.0435 55.3747 37.1372 55.1402 37.1372H51.9754C51.741 37.1372 51.6238 37.0435 51.6238 36.8559L51.6004 34.6289ZM51.9286 39.6925C51.9286 39.5519 52.0458 39.4347 52.2568 39.3643H54.7183L54.9996 39.4112L55.1168 39.6691V51.625C55.1168 51.8125 54.9996 51.9063 54.7652 51.9063H52.2802C52.0458 51.9063 51.9286 51.8125 51.9286 51.625V39.6925Z" fill="#121741"/>
<path d="M66.299 39.3643C66.51 39.3643 66.6976 39.3877 66.8851 39.4346C67.0961 39.4815 67.2368 39.5284 67.3305 39.6221L69.0887 40.9115C69.2528 41.0287 69.3701 41.1928 69.4404 41.3803C69.5107 41.5679 69.5342 41.7789 69.5342 41.9899V51.6483C69.5342 51.8359 69.4169 51.9297 69.1825 51.9297H66.6741C66.4397 51.9297 66.3225 51.8359 66.3225 51.6483V43.2792C66.3225 43.0214 66.2756 42.8807 66.1584 42.7869L65.4785 42.3415L65.1503 42.2477H62.8764C62.7357 42.2712 62.6185 42.2946 62.5482 42.3415L61.8683 42.7869C61.7511 42.8573 61.7042 43.0214 61.7042 43.2792V51.6483C61.7042 51.8359 61.587 51.9297 61.3526 51.9297H58.8442C58.6098 51.9297 58.4926 51.8359 58.4926 51.6483V41.9899C58.4926 41.7789 58.516 41.5913 58.5863 41.3803C58.6567 41.1928 58.7504 41.0287 58.938 40.9115L60.6962 39.6221C60.79 39.5518 60.9306 39.5049 61.1416 39.4346C61.3291 39.3877 61.5401 39.3643 61.7277 39.3643" fill="#121741"/>
<path d="M72.9334 34.6757C72.9334 34.5351 73.0506 34.4179 73.2616 34.3475H75.7465L76.0279 34.3944L76.1451 34.6523V40.1848C76.4498 39.9504 76.8015 39.7863 77.2 39.6222C77.5985 39.4581 77.9971 39.3878 78.3722 39.3878H80.5523C80.7633 39.3878 80.9743 39.4112 81.1853 39.4581C81.3963 39.505 81.5604 39.5519 81.6776 39.6222L83.3889 40.9115C83.553 41.0288 83.6703 41.1929 83.7406 41.4039C83.8109 41.6148 83.8578 41.8258 83.8578 42.0134V51.625C83.8578 51.8125 83.7406 51.9063 83.5062 51.9063H80.9978C80.7633 51.9063 80.6461 51.8125 80.6461 51.625V43.1621C80.6461 42.9745 80.5992 42.8339 80.5289 42.7635L79.8725 42.3181C79.8022 42.2712 79.6615 42.2244 79.474 42.2244H77.4813C77.2469 42.2244 76.9656 42.2712 76.7077 42.365C76.4264 42.4588 76.2388 42.5526 76.1216 42.6698V51.5781L76.0044 51.8359L75.7231 51.8828H73.2382C73.0272 51.8359 72.91 51.7187 72.91 51.5546" fill="#121741"/>
<path d="M93.9851 39.3643C94.4539 39.3877 94.8056 39.5049 95.0869 39.7393L96.7514 41.099C96.9389 41.2866 97.0561 41.4976 97.0561 41.732C97.0796 41.9664 97.0796 42.1071 97.0796 42.1774V49.2103C97.0796 49.3744 97.0561 49.5854 97.0092 49.7729C96.9623 49.9839 96.8217 50.1949 96.5638 50.4293L94.9463 51.7656C94.8759 51.8359 94.7353 51.8593 94.5477 51.8828C94.3602 51.9062 94.1257 51.9062 93.8444 51.9062H89.6482C89.4372 51.9062 89.2496 51.8828 89.0621 51.8359C88.8745 51.789 88.7104 51.7187 88.6167 51.6483L87.0929 50.4762C86.7647 50.2418 86.5537 50.0073 86.5068 49.7729C86.4599 49.5619 86.4365 49.3744 86.4365 49.2103V46.6784C86.4365 46.3502 86.5068 46.1158 86.624 45.9517C86.7412 45.7876 86.8584 45.6704 86.9757 45.5766L88.7104 44.1466C88.8277 44.0294 88.9918 43.9356 89.2027 43.9122C89.4137 43.8653 89.5544 43.8653 89.6482 43.8653H92.1565C92.5082 43.8653 92.8598 43.9356 93.1411 44.0763C93.4459 44.2169 93.7038 44.4045 93.8913 44.592V43.3964C93.8679 43.0448 93.7741 42.74 93.6334 42.5056C93.4928 42.2712 93.2349 42.154 92.8598 42.1071H88.4057L88.2181 42.0602L88.1947 41.8961V39.5987C88.1947 39.4346 88.265 39.3643 88.4291 39.3643H93.9851ZM89.5778 48.4132C89.5778 48.5773 89.6013 48.6945 89.6716 48.7414L90.2577 49.1868L90.3983 49.2337L90.5859 49.2572H93.1411H93.3521L93.5866 49.2103L93.7976 49.0696L93.8679 48.7649V46.8894L93.7038 46.6081L93.3521 46.5143H90.6093C90.4218 46.5143 90.2811 46.5378 90.1873 46.6081L89.695 47.0535L89.6013 47.1708L89.5544 47.4286V48.4132H89.5778Z" fill="#121741"/>
<path d="M107.981 39.3643C108.192 39.3643 108.379 39.3877 108.59 39.4346C108.801 39.4815 108.942 39.5284 109.036 39.6221L110.794 40.9115C110.958 41.0287 111.075 41.1928 111.122 41.3803C111.192 41.5679 111.216 41.7789 111.216 41.9899V51.6483C111.216 51.8359 111.098 51.9297 110.864 51.9297H108.332C108.098 51.9297 107.981 51.8359 107.981 51.6483V43.2792C107.981 43.0214 107.934 42.8807 107.816 42.7869L107.137 42.3415L106.808 42.2477H104.558C104.417 42.2712 104.3 42.2946 104.23 42.3415L103.55 42.7869C103.456 42.8573 103.386 43.0214 103.386 43.2792V51.6483C103.386 51.8359 103.269 51.9297 103.034 51.9297H100.526C100.291 51.9297 100.174 51.8359 100.174 51.6483V41.9899C100.174 41.7789 100.198 41.5913 100.268 41.3803C100.338 41.1928 100.455 41.0287 100.596 40.9115L102.354 39.6221C102.448 39.5518 102.612 39.5049 102.8 39.4346C103.011 39.3877 103.198 39.3643 103.409 39.3643" fill="#121741"/>
<path d="M118.342 39.2236V47.874L118.366 48.0147L118.483 48.2491L119.139 48.9289L119.304 49.0227L119.444 49.0462H123.289L123.57 48.9993L123.875 48.8586L125.774 47.8271H125.891L126.008 47.9209L127.251 49.8667L127.298 50.0308L127.204 50.1714L124.977 51.6249C124.742 51.789 124.461 51.8828 124.203 51.8828C123.945 51.9062 123.781 51.9062 123.734 51.9062H118.577C118.46 51.9062 118.295 51.8828 118.084 51.8828C117.873 51.8593 117.686 51.7421 117.475 51.5545L115.435 49.4212C115.248 49.2337 115.131 49.0227 115.131 48.7883C115.107 48.5539 115.107 48.4132 115.107 48.3429V38.7782C115.107 38.7078 115.131 38.5437 115.131 38.3327C115.154 38.0983 115.248 37.8873 115.435 37.6998L117.475 35.5899C117.663 35.3789 117.873 35.2617 118.084 35.2383C118.295 35.2148 118.46 35.2148 118.577 35.2148H123.523C123.57 35.2148 123.734 35.2383 123.992 35.2383C124.25 35.2617 124.508 35.3321 124.766 35.4962L126.969 36.9496L127.063 37.0903L127.016 37.2544L125.774 39.2001L125.657 39.2939H125.539L123.64 38.2624L123.336 38.1218L123.031 38.0983H119.397L119.257 38.1218L119.093 38.2155L118.436 38.8954L118.319 39.1298L118.342 39.2236Z" fill="#121741"/>
<path d="M136.698 39.3643C137.144 39.3877 137.519 39.5049 137.776 39.7393L139.441 41.099C139.628 41.2866 139.746 41.4976 139.746 41.732C139.769 41.9664 139.793 42.1071 139.793 42.1774V49.2103C139.793 49.3744 139.769 49.5854 139.722 49.7729C139.675 49.9839 139.535 50.1949 139.3 50.4293L137.683 51.7656C137.612 51.8359 137.472 51.8593 137.284 51.8828C137.097 51.9062 136.862 51.9062 136.557 51.9062H132.361C132.15 51.9062 131.963 51.8828 131.775 51.8359C131.588 51.789 131.423 51.7187 131.306 51.6483L129.782 50.4762C129.431 50.2418 129.267 50.0073 129.196 49.7729C129.15 49.5619 129.126 49.3744 129.126 49.2103V46.6784C129.126 46.3502 129.196 46.1158 129.314 45.9517C129.431 45.7876 129.548 45.6704 129.665 45.5766L131.4 44.1466C131.517 44.0294 131.681 43.9356 131.869 43.9122C132.08 43.8653 132.221 43.8653 132.314 43.8653H134.823C135.198 43.8653 135.526 43.9356 135.831 44.0763C136.135 44.2169 136.393 44.4045 136.581 44.592V43.3964C136.557 43.0448 136.464 42.74 136.346 42.5056C136.206 42.2712 135.948 42.154 135.573 42.1071H131.142L130.955 42.0602L130.931 41.8961V39.5987C130.931 39.4346 131.025 39.3643 131.166 39.3643H136.698ZM132.291 48.4132C132.291 48.5773 132.338 48.6945 132.385 48.7414L132.971 49.1868L133.111 49.2337L133.299 49.2572H135.854H136.065L136.3 49.2103L136.487 49.0696L136.581 48.7649V46.8894L136.417 46.6081L136.065 46.5143H133.322C133.135 46.5143 132.994 46.5378 132.9 46.6081L132.432 47.0535L132.314 47.1708L132.267 47.4286V48.4132H132.291Z" fill="#121741"/>
<path d="M146.169 39.3643H150.787C150.928 39.3643 151.022 39.4346 151.022 39.5987V42.0133L150.998 42.1774L150.811 42.2243H147.036L146.872 42.2477L146.708 42.3415L146.263 42.8104L146.146 43.0448L146.122 43.1855V51.6249C146.122 51.8124 146.005 51.9062 145.771 51.9062H143.262C143.028 51.9062 142.911 51.8124 142.911 51.6249V42.7166C142.911 42.6463 142.911 42.4822 142.934 42.2477C142.957 42.0133 143.075 41.8023 143.262 41.6148L145.067 39.7159C145.255 39.5049 145.466 39.4111 145.677 39.3877C145.888 39.3643 146.052 39.3643 146.169 39.3643Z" fill="#121741"/>
<path d="M155.71 51.9063C155.499 51.9063 155.312 51.8828 155.101 51.836C154.913 51.7891 154.749 51.7422 154.655 51.6484L152.874 50.3591C152.71 50.2418 152.616 50.0777 152.546 49.8902C152.475 49.7027 152.452 49.4917 152.452 49.2807V41.9899C152.452 41.779 152.475 41.5914 152.546 41.3804C152.616 41.1694 152.733 41.0288 152.874 40.9116L154.632 39.6222C154.726 39.5519 154.89 39.4815 155.077 39.4581C155.265 39.4112 155.476 39.3878 155.687 39.3878H158.383C158.852 39.3878 159.25 39.4581 159.578 39.5753C159.907 39.716 160.188 39.8566 160.422 40.0442V34.5351L160.516 34.3007L160.774 34.2772H163.4C163.587 34.2772 163.681 34.371 163.681 34.5585V46.6316H163.634V49.3276C163.634 49.5386 163.611 49.7261 163.54 49.9371C163.47 50.1246 163.353 50.2887 163.212 50.4059L161.454 51.6953C161.36 51.7656 161.196 51.836 161.008 51.8828C160.821 51.9297 160.61 51.9532 160.399 51.9532L155.71 51.9063ZM155.663 48.0148C155.663 48.2492 155.734 48.4133 155.851 48.5071L156.531 48.9525L156.671 48.9994L156.859 49.0463H159.274C159.414 49.0228 159.532 48.9994 159.602 48.9525L160.282 48.5071C160.375 48.4367 160.422 48.2726 160.422 48.0148V42.4822C160.305 42.4354 160.164 42.3885 160 42.3416C159.836 42.2947 159.672 42.2713 159.508 42.2713H156.929C156.742 42.2713 156.601 42.2947 156.507 42.365L155.828 42.8104C155.734 42.8808 155.663 43.0449 155.663 43.3027V48.0148Z" fill="#121741"/>
<path d="M30.8065 32.8003C30.9706 32.894 31.1816 32.8003 31.2753 32.6596L32.1896 30.8076C32.2599 30.6435 32.213 30.4325 32.0255 30.3388L27.3369 28.0414C27.1728 27.9476 26.9618 28.0179 26.8681 28.2055L25.9772 30.034C25.8835 30.1981 25.9538 30.4091 26.1413 30.5029" fill="#121741"/>
</svg>
