<svg width="185" height="80" viewBox="0 0 185 80" fill="none" xmlns="http://www.w3.org/2000/svg">
<rect x="0.5" y="0.5" width="184" height="79" rx="3.5" stroke="#C5C5C5" stroke-opacity="0.76"/>
<path fill-rule="evenodd" clip-rule="evenodd" d="M129.459 44.1185C128.239 44.1185 127.616 44.9239 127.519 45.046C127.201 44.4606 126.64 44.1185 125.896 44.1185C124.823 44.1185 124.212 44.7412 124.114 44.8508C124.066 44.68 123.846 44.2285 123.15 44.2285C122.955 44.2285 122.662 44.2898 122.638 44.2898C122.662 44.4237 122.796 45.0581 122.796 45.9365C122.796 46.4858 122.796 49.7925 122.796 49.7925H124.212V45.8634C124.236 45.8389 124.762 45.3019 125.395 45.3019C126.043 45.3019 126.348 45.778 126.348 46.4246V49.7923H127.763V45.8633C127.8 45.827 128.312 45.3018 128.959 45.3018C129.605 45.3018 129.898 45.7778 129.898 46.4244V49.7922H131.326V46.2049C131.326 44.9364 130.606 44.1185 129.459 44.1185ZM113.975 48.7676C113.011 48.7676 112.328 48.0109 112.328 47.0227C112.328 45.9244 113.109 45.2659 113.975 45.2659C114.439 45.2659 114.634 45.4002 114.94 45.4002C115.268 45.4002 115.451 45.2409 115.61 44.9238C115.708 44.7539 115.757 44.6432 115.757 44.6432C115.683 44.6063 114.976 44.1184 113.756 44.1184C111.974 44.1184 110.913 45.4001 110.913 47.0227C110.913 48.8042 112.133 49.914 113.756 49.914C114.94 49.914 115.647 49.4386 115.781 49.341L115.293 48.3774C115.183 48.4502 114.67 48.7676 113.975 48.7676ZM98.4793 44.1185C97.1248 44.1185 95.9899 45.2169 95.9899 47.0228C95.9899 48.8656 97.1006 49.9141 98.748 49.9141C100.065 49.9141 100.748 49.3412 100.834 49.2918C100.834 49.2918 100.7 49.0848 100.664 49.024C100.48 48.7184 100.273 48.6213 100.041 48.6213C99.5771 48.6213 99.5167 48.8162 98.8818 48.8162C97.796 48.8162 97.4176 47.9746 97.3931 47.4137H101.017C101.017 47.2665 101.017 47.0716 101.017 46.9863C101.017 45.2659 100.029 44.1185 98.4793 44.1185ZM97.3931 46.4C97.3931 45.7664 97.8322 45.1802 98.4667 45.1802C99.1621 45.1802 99.5407 45.79 99.5525 46.4H97.3931ZM103.433 48.231V42.4473C103.433 41.8007 103.005 41.3002 102.322 41.3002C102.286 41.3002 102.03 41.3002 102.03 41.3002V48.792C102.03 49.4877 102.456 49.914 103.202 49.914C104.116 49.914 104.385 49.2676 104.385 48.6458C104.348 48.6698 104.153 48.7437 103.958 48.7437C103.628 48.7437 103.433 48.5602 103.433 48.231ZM93.9886 48.0354V45.2906H95.1723L95.5871 44.2284H93.9886V42.5695C93.9886 42.5695 93.867 42.5569 93.8547 42.5695C93.2318 42.5695 92.5732 42.8253 92.5732 44.2164V44.2285H91.5361V45.2908H92.5732V48.5239C92.5732 49.4388 93.1222 49.9142 93.8913 49.9142C94.5134 49.9142 95.3183 49.7319 95.3183 48.4997C95.2699 48.524 94.9646 48.7185 94.6356 48.7185C94.1716 48.7182 93.9886 48.4383 93.9886 48.0354ZM107.349 44.1185C105.995 44.1185 104.848 45.2169 104.848 47.0228C104.848 48.8656 105.958 49.9141 107.619 49.9141C108.924 49.9141 109.607 49.3412 109.692 49.2918C109.692 49.2918 109.57 49.0848 109.534 49.024C109.339 48.7184 109.131 48.6213 108.9 48.6213C108.436 48.6213 108.375 48.8162 107.74 48.8162C106.666 48.8162 106.288 47.9746 106.264 47.4137H109.888C109.888 47.2665 109.888 47.0716 109.888 46.9863C109.888 45.2659 108.887 44.1185 107.349 44.1185ZM106.251 46.4C106.251 45.7664 106.703 45.1802 107.325 45.1802C108.021 45.1802 108.411 45.79 108.423 46.4H106.251ZM119.014 49.914C117.282 49.914 116.245 48.7795 116.245 47.0227C116.245 45.278 117.269 44.1184 119.014 44.1184C120.759 44.1184 121.785 45.278 121.785 47.0227C121.785 48.6698 120.845 49.914 119.014 49.914ZM119.014 48.8287C119.88 48.8287 120.381 48.0842 120.381 47.0228C120.381 45.9614 119.892 45.2048 119.014 45.2048C118.16 45.2048 117.647 45.9488 117.647 47.0228C117.647 48.0593 118.136 48.8287 119.014 48.8287Z" fill="black"/>
<path fill-rule="evenodd" clip-rule="evenodd" d="M73.5147 43.618C72.6604 43.2157 71.9528 42.899 71.9528 42.2402C71.9528 41.7395 72.3553 41.3859 73.1482 41.3859C73.4289 41.3859 73.6734 41.4098 73.9171 41.4582C74.0393 41.4832 74.1726 41.5075 74.2954 41.5075C74.9788 41.5075 75.3688 41.0927 75.6249 40.3118L75.7348 39.9944C75.6249 39.9456 74.5029 39.4581 73.0384 39.4581C70.7077 39.4581 69.4756 40.9462 69.4756 42.5085C69.4756 43.2891 69.7197 43.8504 70.0976 44.3015C70.5985 44.8746 71.2942 45.2533 71.9525 45.5704C72.9162 46.0466 73.782 46.388 73.782 47.0832C73.782 47.7059 73.148 48.0595 72.2941 48.0595C71.1105 48.0595 70.0859 47.3888 69.9638 47.3159L69 49.1216C69.1707 49.2188 70.4032 50 72.4526 50C74.6249 50 76.272 48.755 76.272 46.8274C76.272 44.9238 74.7472 44.2164 73.5147 43.618ZM82.0193 44.5094L85.972 39.6653H83.1538L80.0061 43.8379H79.9565V39.6653H77.6387V49.914H77.7848C78.7858 49.914 79.9806 49.4507 79.9806 47.7789V45.4239H80.018L83.2267 49.7925H86.1798L82.0193 44.5094Z" fill="#E71836"/>
<path fill-rule="evenodd" clip-rule="evenodd" d="M86.0938 28.6836C85.2766 28.8427 84.0683 29.5863 84.0812 30.8922C84.0812 32.0758 85.0574 32.8077 85.0574 34.3574C85.0574 35.5289 84.4104 36.322 83.715 36.7616C83.9957 36.7373 84.3008 36.725 84.6423 36.725C85.3625 36.7124 85.7887 36.7856 85.8136 36.7856L89.4739 32.295C88.4614 30.7707 87.2778 29.5989 86.0938 28.6836Z" fill="#E71836"/>
<path fill-rule="evenodd" clip-rule="evenodd" d="M89.1692 40.8242C89.6327 40.1038 89.6935 38.9578 89.7307 37.7986C89.7795 36.7124 89.9988 35.895 91.4508 35.8831C91.7801 35.8831 92.0851 35.9315 92.6341 35.9315C94.7699 35.9204 96.161 35.1874 97.0275 34.6991C95.2579 33.5772 92.6833 32.4301 89.474 32.2953C89.2669 32.8818 87.6438 37.3962 87.522 37.7623C87.5462 37.7734 87.8274 38.0912 88.1808 38.7134C88.7059 39.5675 88.9863 40.2879 89.1692 40.8242Z" fill="#E71836"/>
<path fill-rule="evenodd" clip-rule="evenodd" d="M81.4454 37.1394C81.251 37.1394 81.1648 37.0179 81.1402 36.798C81.1165 36.5902 80.201 28.2082 80.0664 26.9515C80.0422 26.7559 79.9936 26.4267 79.9936 26.3041C79.9936 26.1096 80.1282 26 80.2744 26C80.7014 26 83.0683 26.5485 85.5821 28.3178C84.862 28.5127 83.5442 29.2696 83.5562 30.8317C83.5562 32.1984 84.5449 32.9668 84.5568 34.3459C84.5568 36.5902 81.9705 37.1394 81.4454 37.1394Z" fill="#F57F26"/>
<path fill-rule="evenodd" clip-rule="evenodd" d="M89.388 41.4224C89.4252 41.5195 89.4617 41.6056 89.4989 41.6664C89.5594 41.7634 89.6322 41.8125 89.7183 41.8125C89.7793 41.8125 89.8523 41.7882 89.9377 41.7519C90.1204 41.6664 97.771 38.103 98.9175 37.5793C99.0888 37.4934 99.4059 37.359 99.5164 37.2978C99.6258 37.2365 99.6744 37.1391 99.6744 37.0545C99.6744 36.9929 99.65 36.9442 99.6258 36.895C99.4797 36.6632 98.7351 35.8831 97.5024 35.0283C96.5266 35.5649 94.9886 36.3953 92.7079 36.4068C92.1459 36.4068 92.0243 36.371 91.6458 36.371C90.5238 36.3825 90.2549 36.8585 90.2056 37.8343C90.2056 38.0182 90.1942 38.2617 90.1942 38.5304C90.1575 39.4084 90.0476 40.6165 89.388 41.4224Z" fill="#F57F26"/>
</svg>
