<svg width="185" height="80" viewBox="0 0 185 80" fill="none" xmlns="http://www.w3.org/2000/svg">
<rect x="0.5" y="0.5" width="184" height="79" rx="3.5" stroke="#C5C5C5" stroke-opacity="0.76"/>
<path d="M84.3022 28.061C84.3022 28.1173 79.2093 32.5015 78.9089 32.7033C78.7962 32.7831 78.5756 32.7878 76.0597 32.7878C73.8582 32.7878 73.3184 32.8019 73.2809 32.8488C73.2433 32.8911 73.2245 34.3837 73.2151 37.9089L73.2011 42.9032L73.0931 43.2787C72.6519 44.8559 71.4408 46.0059 69.8825 46.3251C69.6853 46.3673 69.4037 46.4002 69.2582 46.4002H69V49.1977V52L69.7088 51.9765C70.1172 51.9624 70.4316 51.9343 70.4457 51.9061C70.4645 51.878 70.5725 51.8404 70.6898 51.8216C71.4549 51.6996 72.3984 51.3898 73.248 50.9767C75.8062 49.7328 77.6321 47.5314 78.4301 44.7338C78.5474 44.3114 78.6695 43.7058 78.6695 43.5322C78.6695 43.4571 78.6929 43.396 78.7164 43.396C78.7446 43.396 78.768 43.274 78.7727 43.1238L78.7821 42.8562L78.7962 43.0909C78.8103 43.2177 78.8338 43.3444 78.8572 43.3726C78.876 43.396 78.9182 43.5791 78.9464 43.7716C79.1764 45.2689 79.8711 46.8508 80.8709 48.1604C81.3872 48.841 82.4434 49.822 83.1991 50.329C84.1989 51.0002 85.4334 51.5212 86.5646 51.7512C86.8322 51.8075 87.0904 51.8733 87.142 51.9014C87.1936 51.9296 87.5363 51.9624 87.9024 51.9765L88.5736 52V49.2541C88.5736 47.184 88.5596 46.4987 88.5173 46.4565C88.4845 46.4236 88.353 46.4002 88.2263 46.4002C87.6536 46.4002 86.7101 46.0575 86.114 45.6304C85.7526 45.3722 85.2222 44.8089 85.0156 44.4616C84.7763 44.0626 84.5509 43.504 84.4712 43.105C84.4101 42.8093 84.396 42.3587 84.396 40.5891C84.396 38.9791 84.4101 38.4252 84.4524 38.3829C84.5322 38.3031 88.4845 38.3031 88.5642 38.3829C88.6065 38.4252 88.6206 39.0025 88.6206 40.6924C88.6206 43.1097 88.6581 43.6073 88.8975 44.5508C89.5265 47.0104 91.113 49.1696 93.2816 50.5167C94.2814 51.1363 95.6474 51.6573 96.6941 51.8216C96.8115 51.8404 96.9194 51.8827 96.9382 51.9108C96.9851 51.9812 99.7827 51.9859 99.8296 51.9108C99.8484 51.8827 100.013 51.831 100.191 51.7982C100.374 51.7653 100.764 51.6667 101.064 51.5822C102.787 51.0847 104.364 50.0943 105.608 48.7236C105.796 48.5171 105.979 48.3294 106.016 48.3106C106.063 48.2824 106.242 48.4326 106.659 48.8692C106.974 49.193 107.401 49.6014 107.607 49.7657C108.804 50.7326 110.292 51.4461 111.748 51.7559C112.001 51.8075 112.259 51.878 112.32 51.9061C112.475 51.9812 115.099 51.9859 115.193 51.9108C115.23 51.878 115.413 51.831 115.601 51.7982L115.939 51.7371V48.7894V45.8416L115.554 46.0246C114.996 46.2828 114.681 46.3579 114.001 46.3861C112.639 46.4471 111.635 46.0622 110.729 45.1328C109.903 44.2879 109.509 43.2083 109.57 41.9738C109.602 41.3213 109.692 40.9693 109.973 40.3685C110.255 39.7817 110.635 39.2936 111.109 38.9181C111.959 38.2468 112.907 37.9511 114.033 38.0121C114.709 38.0497 115.16 38.1764 115.906 38.5519C115.925 38.5613 115.939 37.2423 115.939 35.6182V32.6658L115.428 32.5813C114.231 32.3935 113.207 32.3888 112.132 32.5766C110.011 32.9474 108.105 33.9847 106.612 35.5854C106.359 35.8529 106.129 36.0829 106.091 36.097C106.054 36.1111 105.805 35.8858 105.458 35.529C105.143 35.2005 104.716 34.7968 104.509 34.6325C102.228 32.7972 99.3227 32.0649 96.5064 32.6282C95.99 32.7315 95.1874 32.9756 94.5302 33.2337C94.1312 33.3933 94.1594 33.5951 94.1594 30.6286V28H91.39H88.6206V30.3423C88.6206 32.2621 88.6112 32.6939 88.5549 32.7362C88.5126 32.7737 87.9212 32.7831 86.4567 32.7784L84.4195 32.7643L84.4054 30.3798C84.4007 28.8496 84.3773 28 84.3491 28C84.3209 28 84.3022 28.0282 84.3022 28.061ZM99.088 38.0497C99.8531 38.1717 100.646 38.5566 101.224 39.0917C102.219 40.007 102.702 41.2979 102.562 42.6544C102.458 43.6589 102.087 44.4334 101.365 45.1563C100.726 45.7946 100.064 46.1655 99.2664 46.3251C98.797 46.4236 97.9662 46.4189 97.5015 46.3251C95.9102 45.9965 94.6663 44.7854 94.2674 43.1754C94.1453 42.6779 94.1594 41.6546 94.2955 41.143C94.6147 39.9507 95.3986 38.9791 96.4829 38.4299C96.7974 38.275 97.3137 38.106 97.6658 38.045C97.999 37.9934 98.736 37.9934 99.088 38.0497Z" fill="url(#paint0_linear)"/>
<defs>
<linearGradient id="paint0_linear" x1="115.8" y1="40" x2="69" y2="40" gradientUnits="userSpaceOnUse">
<stop stop-color="#5EBDC1"/>
<stop offset="0.442708" stop-color="#9ED58D"/>
<stop offset="0.447917" stop-color="#9ED58D"/>
<stop offset="0.713542" stop-color="#CD8EB1"/>
<stop offset="1" stop-color="#EE256B"/>
</linearGradient>
</defs>
</svg>
